<?xml version="1.0" ?><svg xmlns="http://www.w3.org/2000/svg" id="a" viewBox="0 0 100 100"><defs><style>.b{stroke-width:0px;}</style></defs><path class="b" d="m89.71,14.47c-.2,1.58-.36,3.17-.61,4.74-2.07,12.87-7.11,24.37-15.72,34.24-2.44,2.79-5.13,5.29-8.16,7.43-.46.32-.59.67-.56,1.21.22,4.1.4,8.19.62,12.29.05.98-.26,1.73-.95,2.41-3.94,3.91-7.86,7.83-11.77,11.76-.72.73-1.5,1.16-2.56.86-1.09-.31-1.53-1.11-1.75-2.14-.93-4.36-1.87-8.71-2.81-13.07-.05-.22-.12-.44-.19-.71-1.87,1.04-3.69,2.06-5.52,3.06-1.76.97-2.48.86-3.89-.55-.18-.18-.33-.39-.5-.59-.14.1-.23.13-.25.19-.84,2.08-2.34,3.5-4.32,4.54-5.54,2.92-11.05,5.89-16.56,8.86-.92.5-1.82.57-2.69-.05-.76-.54-1.07-1.32-.91-2.23.06-.37.23-.74.41-1.07,3.1-5.67,6.21-11.35,9.34-17.01.85-1.54,2.09-2.67,3.68-3.42.21-.1.41-.19.88-.42-.41-.31-.75-.5-1.02-.77-.94-.94-1.09-1.81-.5-3.02,1.02-2.08,2.07-4.15,3.15-6.32-1.14-.25-2.26-.51-3.37-.75-3.6-.78-7.2-1.54-10.8-2.34-1.93-.43-2.58-2.54-1.19-3.94,4.09-4.12,8.19-8.23,12.33-12.29.42-.42,1.2-.7,1.8-.68,4.23.14,8.45.36,12.68.59.5.03.8-.11,1.1-.5,9.8-12.36,22.52-19.98,37.9-23.2,2.94-.62,5.97-.81,8.96-1.2.23-.03.45-.08.67-.13.41,0,.83,0,1.24,0,.88.35,1.55.93,1.86,1.86v2.32Zm-42.41,52.48c2.21-1.35,4.43-2.68,6.61-4.05,4.1-2.58,8.23-5.15,11.88-8.37,5.52-4.88,9.65-10.83,12.93-17.4.25-.5-.03-.69-.3-.96-4.85-4.85-9.71-9.7-14.55-14.57-.41-.42-.71-.47-1.24-.2-5.93,3.02-11.28,6.86-15.91,11.65-5.52,5.7-9.58,12.45-13.5,19.27-.1.17,0,.59.15.75.73.8,1.52,1.54,2.28,2.31.95.96,1.9,1.93,2.96,2.99.25-.31.4-.55.6-.75,2.26-2.27,4.53-4.52,6.78-6.79.58-.58,1.24-.92,2.07-.82.92.12,1.59.61,1.9,1.49.33.94.12,1.78-.58,2.49-2.31,2.32-4.63,4.64-6.96,6.95-.2.19-.5.29-.72.41,1.99,1.99,3.75,3.76,5.59,5.6Zm33.68-35.04c2.05-5.36,3.41-10.94,3.93-16.77-5.91.52-11.51,1.77-16.83,3.87,4.32,4.32,8.59,8.59,12.9,12.9Zm-29.01,50.57c.15-.11.24-.15.31-.22,2.68-2.68,5.37-5.35,8.03-8.05.18-.19.27-.55.26-.82-.02-1.16-.09-2.32-.15-3.48-.09-1.79-.19-3.57-.29-5.38-.14.03-.19.03-.23.05-3.35,2.07-6.71,4.14-10.04,6.24-.17.11-.28.51-.24.74.28,1.47.61,2.92.92,4.38.47,2.15.94,4.3,1.42,6.53ZM17.49,47.89c.15.1.19.14.23.15,3.54.77,7.09,1.53,10.63,2.32.5.11.67-.13.89-.49,1.94-3.19,3.9-6.36,5.85-9.55.09-.14.15-.29.27-.54-3.08-.14-6.06-.29-9.04-.4-.23,0-.52.19-.7.38-1.47,1.45-2.92,2.91-4.38,4.37-1.24,1.24-2.48,2.47-3.76,3.75Zm1.31,33.23c.11.03.14.05.16.04,3.47-1.85,6.96-3.67,10.41-5.57,1.25-.69,1.83-2.21,1.56-3.6-.3-1.5-1.42-2.6-2.89-2.85-1.39-.23-2.87.4-3.57,1.65-1.9,3.42-3.77,6.85-5.66,10.32Zm16.11-12.53c1.06,1.04,2.09,2.08,3.16,3.08.14.13.49.21.64.13,1.45-.78,2.87-1.59,4.19-2.33-1.5-1.51-2.97-3-4.42-4.45-1.13,1.13-2.31,2.31-3.57,3.57Zm-3.39-3.45c1.23-1.23,2.43-2.43,3.56-3.55-1.47-1.47-2.97-2.97-4.51-4.5-.73,1.43-1.5,2.91-2.24,4.4-.07.14-.03.42.07.53,1.04,1.07,2.1,2.11,3.11,3.13Z"/><path class="b" d="m60.26,49.47c-5.17.03-9.61-4.36-9.63-9.51-.01-5.53,4.23-9.82,9.75-9.85,5.21-.03,9.58,4.28,9.63,9.49.05,5.49-4.25,9.84-9.75,9.87Zm-4.98-9.69c0,2.84,2.21,5.04,5.05,5.04,2.77,0,5.02-2.23,5.04-5,.02-2.79-2.25-5.07-5.04-5.08-2.83,0-5.05,2.21-5.05,5.04Z"/></svg>