<?xml version="1.0" ?>
<svg id="Layer_3" style="enable-background:new 0 0 64 64;" version="1.1" viewBox="0 0 64 64" xml:space="preserve" xmlns="http://www.w3.org/2000/svg" xmlns:xlink="http://www.w3.org/1999/xlink"><g>
<path d="M39,24V8c0-0.552-0.447-1-1-1H8C7.447,7,7,7.448,7,8v16c0,0.552,0.447,1,1,1h30C38.553,25,39,24.552,39,24z M37,23H9V9h28   V23z"/>
<path d="M15,30c0-0.552-0.447-1-1-1H8c-0.553,0-1,0.448-1,1v6c0,0.552,0.447,1,1,1h6c0.553,0,1-0.448,1-1V30z M13,35H9v-4h4V35z"/>
<path d="M27,30c0-0.552-0.447-1-1-1h-6c-0.553,0-1,0.448-1,1v6c0,0.552,0.447,1,1,1h6c0.553,0,1-0.448,1-1V30z M25,35h-4v-4h4V35z"/>
<path d="M15,40c0-0.552-0.447-1-1-1H8c-0.553,0-1,0.448-1,1v6c0,0.552,0.447,1,1,1h6c0.553,0,1-0.448,1-1V40z M13,45H9v-4h4V45z"/>
<path d="M27,40c0-0.552-0.447-1-1-1h-6c-0.553,0-1,0.448-1,1v6c0,0.552,0.447,1,1,1h6c0.553,0,1-0.448,1-1V40z M25,45h-4v-4h4V45z"/>
<path d="M14,49H8c-0.553,0-1,0.448-1,1v6c0,0.552,0.447,1,1,1h6c0.553,0,1-0.448,1-1v-6C15,49.448,14.553,49,14,49z M13,55H9v-4h4   V55z"/>
<path d="M26,49h-6c-0.553,0-1,0.448-1,1v6c0,0.552,0.447,1,1,1h6c0.553,0,1-0.448,1-1v-6C27,49.448,26.553,49,26,49z M25,55h-4v-4   h4V55z"/>
<path d="M16,21h4c0.553,0,1-0.448,1-1v-8c0-0.552-0.447-1-1-1h-4c-0.553,0-1,0.448-1,1v8C15,20.552,15.447,21,16,21z M17,13h2v6h-2   V13z"/>
<path d="M23,21h4c0.553,0,1-0.448,1-1v-8c0-0.552-0.447-1-1-1h-4c-0.553,0-1,0.448-1,1v8C22,20.552,22.447,21,23,21z M24,13h2v6h-2   V13z"/>
<path d="M30,21h4c0.553,0,1-0.448,1-1v-8c0-0.552-0.447-1-1-1h-4c-0.553,0-1,0.448-1,1v8C29,20.552,29.447,21,30,21z M31,13h2v6h-2   V13z"/>
<rect height="2" width="2" x="11" y="19"/><polygon points="47,45 47,35 45,35 45,45 35,45 35,47 45,47 45,57 47,57 47,47 57,47 57,45  "/><
    rect height="2" width="6" x="37" y="39"/><rect height="2" width="6" x="37" y="51"/>
<path d="M46,29c-0.338,0-0.667,0.031-1,0.051V2c0-0.552-0.447-1-1-1H2C1.447,1,1,1.448,1,2v60c0,0.552,0.447,1,1,1h33v-2H3V3h40   v26.281c-1.401,0.251-2.74,0.672-4,1.244V30c0-0.552-0.447-1-1-1h-6c-0.553,0-1,0.448-1,1v6c0,0.427,0.27,0.786,0.647,0.929   C29.98,39.557,29,42.663,29,46c0,7.132,4.503,13.556,11.205,15.986C42.06,62.659,44.01,63,46,63c9.374,0,17-7.626,17-17   S55.374,29,46,29z M33,35v-4h4v0.604c-1.48,0.929-2.81,2.071-3.938,3.396H33z M46,61c-1.758,0-3.478-0.301-5.113-0.894   C34.974,57.962,31,52.293,31,46c0-8.271,6.729-15,15-15s15,6.729,15,15S54.271,61,46,61z"/>
<polygon points="53.293,49.293 52,50.586 50.707,49.293 49.293,50.707 50.586,52 49.293,53.293 50.707,54.707 52,53.414    53.293,54.707 54.707,53.293 53.414,52 54.707,50.707  "/>
<polygon points="51,43 53,43 53,41 55,41 55,39 53,39 53,37 51,37 51,39 49,39 49,41 51,41  "/>
<rect height="2" width="2" x="39" y="48"/>
<rect height="2" width="2" x="39" y="54"/></g></svg>