<?xml version="1.0" ?><!DOCTYPE svg  PUBLIC '-//W3C//DTD SVG 1.1//EN'  'http://www.w3.org/Graphics/SVG/1.1/DTD/svg11.dtd'><svg height="100%" style="fill-rule:evenodd;clip-rule:evenodd;stroke-linejoin:round;stroke-miterlimit:2;" version="1.1" viewBox="0 0 32 32" width="100%" xml:space="preserve" xmlns="http://www.w3.org/2000/svg" xmlns:serif="http://www.serif.com/" xmlns:xlink="http://www.w3.org/1999/xlink"><path d="M13,19.995c-0,-1.657 -1.343,-3 -3,-3c-1.743,0 -4.257,0 -6,0c-1.657,0 -3,1.343 -3,3l-0,5.986c0,0.553 0.448,1 1,1l10,0c0.552,0 1,-0.447 1,-1l-0,-5.986Zm-2,0l0,4.986c0,0 -8,0 -8,0c0,0 0,-4.986 0,-4.986c0,-0.552 0.448,-1 1,-1l6,0c0.552,0 1,0.448 1,1Z"/><path d="M30.972,19.995c0,-1.657 -1.343,-3 -3,-3c-1.743,0 -4.257,0 -6,0c-1.657,0 -3,1.343 -3,3l0,5.986c0,0.553 0.448,1 1,1l10,0c0.553,0 1,-0.447 1,-1l0,-5.986Zm-2,0l0,4.986c0,0 -8,0 -8,0c0,0 0,-4.986 0,-4.986c0,-0.552 0.448,-1 1,-1l6,0c0.553,0 1,0.448 1,1Z"/><path d="M7,6.983c-2.208,-0 -4,1.792 -4,4c0,2.208 1.792,4 4,4c2.208,-0 4,-1.792 4,-4c0,-2.208 -1.792,-4 -4,-4Zm0,2c1.104,-0 2,0.896 2,2c0,1.104 -0.896,2 -2,2c-1.104,-0 -2,-0.896 -2,-2c0,-1.104 0.896,-2 2,-2Z"/><path d="M24.972,6.983c-2.207,-0 -4,1.792 -4,4c0,2.208 1.793,4 4,4c2.208,-0 4,-1.792 4,-4c0,-2.208 -1.792,-4 -4,-4Zm0,2c1.104,-0 2,0.896 2,2c0,1.104 -0.896,2 -2,2c-1.104,-0 -2,-0.896 -2,-2c0,-1.104 0.896,-2 2,-2Z"/><circle cx="12" cy="6" r="1.25"/><circle cx="16.002" cy="6" r="1.25"/><circle cx="20.004" cy="6" r="1.25"/><g id="Icon"/></svg>