<?xml version="1.0" ?><!DOCTYPE svg  PUBLIC '-//W3C//DTD SVG 1.1//EN'  'http://www.w3.org/Graphics/SVG/1.1/DTD/svg11.dtd'><svg height="100%" style="fill-rule:evenodd;clip-rule:evenodd;stroke-linejoin:round;stroke-miterlimit:2;" version="1.1" viewBox="0 0 32 32" width="100%" xml:space="preserve" xmlns="http://www.w3.org/2000/svg" xmlns:serif="http://www.serif.com/" xmlns:xlink="http://www.w3.org/1999/xlink"><path d="M14.99,17.558c-0.473,-0.81 -1.065,-1.554 -1.797,-2.133c-1.351,-1.071 -2.978,-1.439 -4.451,-1.472c-2.106,-0.048 -3.869,0.584 -3.869,0.584c-0.405,0.144 -0.672,0.532 -0.664,0.962c0,-0 0.145,5.2 3.392,7.771c2.359,1.869 5.732,1.85 7.389,1.701l0,4.945c0,0.591 0.448,1.071 1,1.071c0.552,0 1,-0.48 1,-1.071l0,-4.947c1.651,0.15 5.041,0.178 7.409,-1.699c3.247,-2.571 3.392,-7.771 3.392,-7.771c0.008,-0.43 -0.259,-0.818 -0.664,-0.962c-0,-0 -1.763,-0.632 -3.869,-0.584c-1.473,0.033 -3.1,0.401 -4.451,1.472l-0,-0c-0.742,0.587 -1.34,1.344 -1.817,2.166l0,-4.607c1.656,-0 3,-1.344 3,-3c0,-1.656 -1.344,-3 -3,-3c0,-0 -2,-0 -2,-0c-0.552,-0 -1,-0.448 -1,-1c0,-0.552 0.448,-1 1,-1c0,-0 3,-0 3,-0c0.552,-0 1,-0.448 1,-1c0,-0.552 -0.448,-1 -1,-1l-0.996,-0l-0,-1c-0,-0.552 -0.448,-1 -1,-1c-0.552,-0 -1,0.448 -1,1l-0,1l-0.004,-0c-1.655,-0 -3,1.344 -3,3c0,1.656 1.345,3 3,3c0,-0 2,-0 2,-0c0.552,-0 1,0.448 1,1c0,0.552 -0.448,1 -1,1c0,-0 -3,-0 -3,-0c-0.552,-0 -1,0.448 -1,1c0,0.552 0.448,1 1,1l1,-0l0,4.574Zm-3.039,-0.566c1.021,0.809 1.655,2.055 2.072,3.242c0.372,1.055 0.568,2.077 0.669,2.776c-1.367,0.135 -4,0.158 -5.849,-1.307c-1.909,-1.513 -2.435,-4.179 -2.579,-5.483c0.582,-0.137 1.463,-0.29 2.432,-0.268c1.074,0.025 2.27,0.26 3.255,1.04Zm8.098,0c0.985,-0.78 2.181,-1.015 3.255,-1.04c0.969,-0.022 1.85,0.131 2.432,0.268c-0.144,1.304 -0.67,3.97 -2.579,5.483c-1.849,1.465 -4.482,1.442 -5.849,1.307c0.101,-0.699 0.297,-1.721 0.669,-2.776c0.417,-1.187 1.051,-2.433 2.072,-3.242l-0,0Z"/><g id="Icon"/></svg>