<?xml version="1.0" ?><svg xmlns="http://www.w3.org/2000/svg" id="a" viewBox="0 0 100 100"><defs><style>.b{stroke-width:0px;}</style></defs><path class="b" d="m50.85,10.29c1.45.19,2.92.3,4.36.59,10.23,2.1,18.29,10.32,20.09,20.6,1.81,10.39-1.57,18.76-10.05,25.06-.37.28-.57.55-.52,1.02.03.23.02.46,0,.7-.09,1.23.14,2.25.99,3.3,1.78,2.21,1.66,5.5,0,7.8-.11.14-.21.29-.31.43,3.72,4.54.43,11.26-5.21,11.22-.48,2.08-1.33,4.01-2.91,5.51-2.92,2.78-6.38,3.59-10.22,2.57-3.78-1.01-6.13-3.56-7.17-7.29-.17-.6-.34-.87-1.03-.91-4.88-.33-7.66-6.28-4.88-10.37.16-.23.32-.46.49-.69-1.74-2.26-2.07-4.69-.94-7.28.21-.49.48-1.02.87-1.35.69-.6.67-1.33.76-2.14.15-1.48-.36-2.38-1.58-3.31-9.27-7.07-12.16-19.38-7.07-30.25,3.86-8.26,10.32-13.27,19.36-14.82,1.04-.18,2.09-.25,3.14-.36.62,0,1.24,0,1.86,0Zm9.24,48.35c0-.66.06-1.23-.01-1.79-.2-1.71.5-2.76,1.95-3.74,6.97-4.72,10.03-11.37,8.89-19.7-1.63-11.95-12.12-19.77-24.12-18.16-12.49,1.68-20.03,14.05-17.69,25.32,1.16,5.58,4.32,9.79,9.09,12.82,1.1.7,1.66,1.55,1.57,2.86-.06.79-.01,1.58-.01,2.41h3.5c.03-.16.07-.29.07-.41,0-3.15.02-6.3-.01-9.44,0-.29-.2-.63-.41-.85-1.42-1.46-2.87-2.9-4.32-4.33-.58-.58-.93-1.24-.83-2.07.11-.92.61-1.6,1.49-1.91.93-.33,1.79-.14,2.49.57,1.72,1.71,3.41,3.45,5.16,5.13.79.76,1.11,1.61,1.1,2.68-.04,3.25-.01,6.5-.01,9.75,0,.28,0,.55,0,.88h3.85c0-.32,0-.6,0-.88,0-3.3.01-6.6,0-9.91,0-.96.29-1.74,1-2.41,1.75-1.68,3.46-3.4,5.19-5.09,1.12-1.1,2.53-1.16,3.5-.17.94.97.86,2.37-.21,3.44-1.44,1.44-2.92,2.85-4.34,4.31-.27.28-.46.75-.47,1.13-.04,2.94-.02,5.88-.02,8.82,0,.25.03.49.05.76h3.56Zm-10.16,17.64c3.25,0,6.5,0,9.75,0,.28,0,.57,0,.85-.03,1.02-.12,1.74-.89,1.79-1.9.05-1.08-.58-1.93-1.61-2.14-.33-.06-.67-.08-1-.08-6.5,0-13,0-19.5,0-.36,0-.73.01-1.08.08-.92.17-1.55.9-1.6,1.83-.08,1.34.79,2.23,2.26,2.24,3.38.01,6.76,0,10.14,0Zm-.01-8.8c2.17,0,4.33,0,6.5,0,1.29,0,2.58.03,3.87-.02,1.32-.05,2.11-.97,2.04-2.22-.07-1.19-.93-1.9-2.36-1.9-6.68,0-13.36,0-20.04,0-.23,0-.47,0-.69.04-.97.15-1.66.93-1.69,1.92-.05,1.33.82,2.17,2.33,2.18,3.35.02,6.71,0,10.06,0Zm-5.41,13.48c.78,2.46,3.21,4.09,5.77,3.93,2.36-.15,4.65-1.93,5.01-3.93h-10.78Z"/><path class="b" d="m10.29,34.44c.48-1.37,1.49-1.86,2.89-1.82,1.42.05,2.84-.02,4.26.02,1.27.04,2.16.85,2.3,1.99.14,1.17-.5,2.22-1.58,2.52-.37.1-.76.11-1.15.12-1.26.01-2.53-.04-3.79.02-1.4.07-2.4-.43-2.92-1.77v-1.08Z"/><path class="b" d="m12.26,46.66c.02-.77.42-1.5,1.25-1.9,1.5-.73,3.02-1.44,4.55-2.1,1.17-.51,2.48.03,2.99,1.15.52,1.13.1,2.45-1.05,3.03-1.49.75-3.01,1.46-4.55,2.11-1.56.66-3.2-.47-3.2-2.28Z"/><path class="b" d="m21.32,25.01c-.01,1.73-1.53,2.89-2.99,2.32-1.67-.65-3.3-1.43-4.9-2.25-1.06-.54-1.4-1.89-.89-2.96.5-1.06,1.75-1.63,2.86-1.17,1.61.67,3.19,1.42,4.76,2.19.81.4,1.16,1.13,1.17,1.87Z"/><path class="b" d="m85.17,20.81c1.12,0,2.04.66,2.33,1.6.31,1.01-.07,2.2-1.02,2.68-1.61.81-3.24,1.57-4.9,2.25-1.06.44-2.21-.11-2.73-1.13-.53-1.04-.33-2.34.66-2.87,1.69-.91,3.47-1.66,5.22-2.46.16-.07.35-.05.43-.05Z"/><path class="b" d="m84.78,37.26c-.82,0-1.65.04-2.47,0-1.3-.07-2.18-.98-2.2-2.22-.03-1.27.77-2.28,2.06-2.35,1.77-.09,3.55-.09,5.32,0,1.28.07,2.1,1.11,2.06,2.35-.04,1.24-.93,2.15-2.22,2.21-.85.04-1.7,0-2.55,0Z"/><path class="b" d="m78.52,44.79c.02-1.66,1.56-2.78,3.11-2.15,1.59.65,3.15,1.39,4.69,2.16,1.11.55,1.5,1.88,1,2.99-.5,1.08-1.79,1.66-2.92,1.19-1.59-.67-3.14-1.41-4.69-2.17-.83-.41-1.2-1.13-1.19-2.01Z"/></svg>