<?xml version="1.0" ?><!DOCTYPE svg  PUBLIC '-//W3C//DTD SVG 1.1//EN'  'http://www.w3.org/Graphics/SVG/1.1/DTD/svg11.dtd'><svg height="100%" style="fill-rule:evenodd;clip-rule:evenodd;stroke-linejoin:round;stroke-miterlimit:2;" version="1.1" viewBox="0 0 32 32" width="100%" xml:space="preserve" xmlns="http://www.w3.org/2000/svg" xmlns:serif="http://www.serif.com/" xmlns:xlink="http://www.w3.org/1999/xlink"><path d="M15.003,8.997c-1.656,-0 -3,1.343 -3,2.996c-0,1.654 1.344,2.997 3,2.997c-0,-0 2,-0 2,-0c0.551,-0 1,0.446 1,0.996c-0,0.551 -0.449,0.997 -1,0.997l-3,-0c-0.552,-0 -1,0.448 -1,1c-0,0.552 0.448,1 1,1l0.994,-0l-0,1.017c-0,0.552 0.448,1 1,1c0.551,-0 1,-0.448 1,-1l-0,-1.017l0.006,-0c1.656,-0 3,-1.343 3,-2.997c-0,-1.653 -1.344,-2.996 -3,-2.996c-0,-0 -2,-0 -2,-0c-0.552,-0 -1,-0.446 -1,-0.997c-0,-0.55 0.448,-0.996 1,-0.996l3,-0c0.552,-0 1,-0.448 1,-1c-0,-0.552 -0.448,-1 -1,-1l-1,-0l-0,-1.022c-0,-0.552 -0.448,-1 -1,-1c-0.552,-0 -1,0.448 -1,1l-0,1.022Z"/><path d="M6,21.103l0,6.9c0,0.367 0.201,0.705 0.524,0.88c0.323,0.174 0.715,0.158 1.023,-0.043l6.045,-3.948c0.781,0.125 1.587,0.19 2.411,0.19c7.225,-0 13.009,-5.001 13.009,-11.041c0,-6.041 -5.784,-11.041 -13.009,-11.041c-7.225,0 -13.01,5 -13.01,11.041c0,2.677 1.121,5.14 3.007,7.062Zm2,-0.419c0,-0.275 -0.113,-0.538 -0.313,-0.727c-1.668,-1.579 -2.694,-3.646 -2.694,-5.916c0,-5.043 4.978,-9.041 11.01,-9.041c6.032,0 11.009,3.998 11.009,9.041c0,5.043 -4.977,9.041 -11.009,9.041c-0.84,-0 -1.658,-0.078 -2.445,-0.225c-0.253,-0.047 -0.515,0.005 -0.73,0.146l-4.828,3.153c0,-0 0,-5.472 0,-5.472Z"/><circle cx="9" cy="14" r="1.25"/><circle cx="23" cy="14" r="1.25"/><g id="Icon"/></svg>