<?xml version="1.0" ?><!DOCTYPE svg  PUBLIC '-//W3C//DTD SVG 1.1//EN'  'http://www.w3.org/Graphics/SVG/1.1/DTD/svg11.dtd'><svg height="100%" style="fill-rule:evenodd;clip-rule:evenodd;stroke-linejoin:round;stroke-miterlimit:2;" version="1.1" viewBox="0 0 32 32" width="100%" xml:space="preserve" xmlns="http://www.w3.org/2000/svg" xmlns:serif="http://www.serif.com/" xmlns:xlink="http://www.w3.org/1999/xlink"><path d="M15.018,15l-0.004,0c-1.655,0 -3,1.344 -3,3c0,1.656 1.345,3 3,3c0,0 2,0 2,0c0.552,0 1,0.448 1,1c0,0.552 -0.448,1 -1,1c0,0 -3,0 -3,0c-0.551,0 -1,0.448 -1,1c0,0.552 0.449,1 1,1l1.004,0l-0,1c-0,0.552 0.448,1 1,1c0.552,-0 1,-0.448 1,-1l-0,-1c1.654,-0.002 2.996,-1.345 2.996,-3c0,-1.656 -1.344,-3 -3,-3c0,0 -2,0 -2,0c-0.551,0 -1,-0.448 -1,-1c0,-0.552 0.449,-1 1,-1c0,0 3,0 3,0c0.552,-0 1,-0.448 1,-1c0,-0.552 -0.448,-1 -1,-1l-0.996,0l-0,-1c-0,-0.552 -0.448,-1 -1,-1c-0.552,-0 -1,0.448 -1,1l-0,1Z"/><path d="M13.481,9.006l-1.451,0c-0.552,0 -1,0.448 -1,1c-0,0.552 0.448,1 1,1l0.497,0c-1.517,1.467 -3.382,3.21 -4.851,5.163c-1.542,2.051 -2.646,4.33 -2.646,6.753c-0,2.046 0.485,3.582 1.298,4.74c1.828,2.601 5.462,3.326 9.702,3.326c4.24,-0 7.874,-0.725 9.701,-3.326c0.813,-1.158 1.299,-2.694 1.299,-4.74c-0,-2.424 -1.106,-4.705 -2.649,-6.757c-1.467,-1.952 -3.331,-3.693 -4.847,-5.159l0.496,0c0.552,0 1,-0.448 1,-1c-0,-0.552 -0.448,-1 -1,-1l-1.458,0l1.861,-3.641c0.475,-0.93 0.432,-2.04 -0.113,-2.931c-0.545,-0.891 -1.514,-1.434 -2.559,-1.434l-3.471,0c-1.044,-0 -2.013,0.543 -2.559,1.434c-0.545,0.891 -0.587,2.002 -0.112,2.932l1.862,3.64Zm3.228,2c1.303,1.372 3.279,3.081 5.006,5.052c1.775,2.027 3.315,4.331 3.315,6.864c-0,1.545 -0.322,2.716 -0.935,3.59c-0.703,1.001 -1.778,1.589 -3.069,1.951c-1.451,0.407 -3.164,0.525 -4.996,0.525c-1.833,-0 -3.545,-0.118 -4.996,-0.525c-1.292,-0.362 -2.366,-0.95 -3.069,-1.951c-0.614,-0.874 -0.935,-2.045 -0.935,-3.59c-0,-2.531 1.537,-4.833 3.312,-6.859c1.727,-1.973 3.705,-3.683 5.009,-5.057l1.358,0Zm-0.383,-2l-0.599,0l-2.327,-4.551c-0.158,-0.31 -0.144,-0.68 0.037,-0.977c0.182,-0.297 0.505,-0.478 0.853,-0.478l3.471,0c0.349,0 0.672,0.181 0.853,0.478c0.182,0.297 0.196,0.667 0.038,0.977l-2.326,4.551Z"/><g id="Icon"/></svg>