<?xml version="1.0" ?><svg xmlns="http://www.w3.org/2000/svg" id="a" viewBox="0 0 100 100"><defs><style>.b{stroke-width:0px;}</style></defs><path class="b" d="m89.71,46.83c-.49,1.12-1.31,1.69-2.56,1.75-.91.04-1.51.74-1.68,1.66-.09.51-.09,1.04-.27,1.52-.56,1.52-1.66,2.39-3.29,2.53-.66.05-1.34,0-2.1,0,.1.6.21,1.12.27,1.65,1.01,9.09-1.8,16.77-8.55,22.95-.73.67-1.08,1.36-1.05,2.35.05,1.86.02,3.71.01,5.57,0,1.72-.92,2.62-2.63,2.63-2.84,0-5.68,0-8.51,0-1.72,0-2.6-.91-2.61-2.63,0-.46,0-.92,0-1.39h-18.62c0,.55,0,1.03,0,1.51-.04,1.59-.94,2.51-2.51,2.51-2.97.01-5.93.01-8.9,0-1.57,0-2.48-.93-2.49-2.51,0-2.19.02-4.39-.02-6.58,0-.35-.21-.8-.47-1.02-2.83-2.42-5.02-5.3-6.4-8.79-.1-.26-.4-.54-.67-.62-3.81-1.19-6.18-4.33-6.2-8.3-.01-2.01-.02-4.02,0-6.04.04-4.06,2.74-7.38,6.7-8.3.3-.07.6-.35.79-.61,1.36-1.88,2.7-3.76,4-5.68.16-.23.17-.67.07-.94-1.07-2.87-2.11-5.76-3.29-8.59-.79-1.91.4-3.65,2.38-3.58,2.24.07,4.49-.09,6.73-.08,4.47.02,8.13,1.8,11.04,5.19.23.26.67.48,1.02.48,5.37.04,10.73.05,16.1.06.08,0,.15-.02.3-.04-2.05-5.94-1.12-11.44,2.64-16.42,2.62-3.47,6.11-5.71,10.42-6.4,8.17-1.31,17.02,2.82,19.51,12.49,2.3,8.94-2.4,18.97-13.24,21.24.87,1.66,1.74,3.35,2.64,5.02.08.14.32.26.48.27.67.03,1.34.01,2.04.01.08-.3.16-.56.23-.83.72-2.74,3.06-4.7,5.88-4.94,1.36-.12,2.26.48,2.81,1.68v1.24Zm-65.62-14.47c.17.49.25.76.34,1.02.88,2.31,1.77,4.61,2.65,6.93.46,1.22.21,2.01-.71,2.92-.86.85-1.73,1.72-2.42,2.7-.97,1.39-1.82,2.87-2.66,4.35-.55.97-1.31,1.47-2.42,1.5-2.22.07-3.76,1.66-3.78,3.87-.01,1.93,0,3.87,0,5.8,0,2.45,1.4,3.94,3.86,4.13,1.09.08,1.87.62,2.17,1.68,1.11,3.91,3.4,6.95,6.64,9.33.77.57,1.1,1.32,1.09,2.27-.01,1.7,0,3.4,0,5.11,0,.27,0,.54,0,.79h4.62c0-.35,0-.63,0-.91,0-1.99-.02-3.97.01-5.96.03-1.59,1.28-2.56,2.82-2.26,1.08.21,1.76,1.09,1.8,2.38.03.89,0,1.79,0,2.64h18.62c0-.92,0-1.72,0-2.52.01-1.55.9-2.54,2.28-2.56,1.42-.02,2.35.99,2.35,2.57,0,1.93,0,3.87,0,5.8,0,.27,0,.55,0,.81h4.47c0-1.16.05-2.26,0-3.37-.13-2.51.86-4.44,2.74-6.09,8.86-7.79,9.44-21.87,1.29-30.43-.26-.27-.66-.5-1.03-.58-3.55-.8-6.56-2.52-9.06-5.17-.2-.21-.48-.43-.76-.47-1.27-.2-2.55-.47-3.83-.49-5.52-.06-11.04-.06-16.56-.03-1.28,0-2.19-.42-2.9-1.52-1.4-2.15-3.42-3.56-5.94-3.97-1.81-.29-3.69-.2-5.71-.29Zm48.31,7.58c7.08-.01,12.44-5.39,12.48-12.53.03-6.73-5.64-12.35-12.47-12.35-6.85,0-12.48,5.54-12.51,12.31-.03,7.13,5.4,12.59,12.5,12.57Z"/><path class="b" d="m48.09,48.4c-2.01,0-4.02.01-6.03,0-.93,0-1.65-.44-2.03-1.29-.38-.83-.31-1.66.24-2.42.46-.64,1.13-.91,1.88-.91,3.94-.02,7.89-.03,11.83,0,1.47.01,2.42,1.04,2.37,2.4-.05,1.34-.99,2.21-2.45,2.23-1.93.02-3.87,0-5.8,0,0,0,0,0,0,0Z"/><path class="b" d="m27.41,49.89c1.29.01,2.29,1.05,2.27,2.33-.02,1.32-1.02,2.28-2.33,2.27-1.3-.02-2.29-1.02-2.29-2.32,0-1.25,1.07-2.29,2.35-2.28Z"/><path class="b" d="m72.44,18.94c4.89.03,8.64,3.83,8.58,8.69-.06,4.73-3.98,8.55-8.74,8.51-4.69-.04-8.6-3.99-8.54-8.63.06-4.91,3.8-8.6,8.7-8.57Zm-.05,12.55c2.25,0,4-1.77,3.99-4.04,0-2.13-1.8-3.9-3.97-3.92-2.19-.02-4.04,1.79-4.03,3.94,0,2.28,1.75,4.03,4.01,4.02Z"/></svg>