<?xml version="1.0" ?><svg xmlns="http://www.w3.org/2000/svg" id="a" viewBox="0 0 100 100"><defs><style>.b{stroke-width:0px;}</style></defs><path class="b" d="m65.72,10.29c1.11.39,2.31.61,3.31,1.19,2.63,1.52,3.93,3.92,4.08,6.95.01.23,0,.46,0,.8.48,0,.91,0,1.33,0,1.42,0,2.84-.01,4.26,0,1.44.02,2.37.92,2.39,2.38.03,1.75,0,3.51,0,5.26,0,.28,0,.56,0,.9,2.76.06,5.03,1.04,6.71,3.19,1.27,1.63,1.84,3.5,1.73,5.56-.2,3.7-3.2,7.68-8.38,7.73v13.34c5.49.73,8.46,3.66,8.38,8.18-.06,3.35-2.57,7.74-8.4,7.84-.02.26-.04.53-.04.8,0,1.57,0,3.15,0,4.72,0,1.77-.9,2.67-2.67,2.67-1.9,0-3.81,0-5.7,0-1,5.08-3.53,7.6-7.77,7.69-2.14.04-4.06-.65-5.62-2.16-1.54-1.49-2.22-3.37-2.4-5.53-1.57,0-3.09,0-4.6,0-.72,0-1.44,0-2.17,0-1.66-.01-2.58-.94-2.59-2.59,0-8.46,0-16.93,0-25.39v-.95h-4.45c.19,2.88-.75,5.29-2.94,7.16-1.53,1.31-3.33,1.93-5.34,1.89-4.25-.08-8.26-3.81-7.9-9.1-.77,0-1.53,0-2.29,0-1.11,0-2.22,0-3.33,0-1.69,0-2.62-.93-2.63-2.64-.01-1.96,0-3.92,0-5.94-.52-.05-1-.06-1.47-.14-3.51-.57-6.13-3.13-6.8-6.62-.03-.15-.09-.29-.14-.44,0-.72,0-1.45,0-2.17.05-.11.11-.23.14-.35.76-3.49,2.87-5.68,6.33-6.54.61-.15,1.26-.17,1.95-.26,0-2.02-.01-4,0-5.99.02-1.63.93-2.53,2.56-2.54,1.63,0,3.25,0,4.88,0,.27,0,.54-.02.83-.04-.12-3.01.95-5.38,3.22-7.2,1.2-.96,2.63-1.37,4.09-1.7.52,0,1.03,0,1.55,0,.12.04.23.11.36.13,3.53.58,6.12,3.06,6.82,6.58.14.72.15,1.46.22,2.19h13.62c0-.27,0-.49,0-.72.05-2.71,1.19-4.86,3.29-6.52,1.18-.93,2.59-1.33,4.02-1.66.52,0,1.03,0,1.55,0Zm-18.12,13.59c-2.47,0-4.81-.05-7.16.02-2.3.07-3.32-2.07-2.33-3.73.88-1.5.39-3.38-.95-4.45-1.2-.97-2.94-.97-4.16-.01-1.35,1.06-1.86,2.96-.97,4.45.97,1.62.05,3.85-2.39,3.75-1.8-.07-3.61-.02-5.42-.01-.27,0-.54.03-.87.05,0,2.25.01,4.41,0,6.57-.01,2.12-1.55,3.11-3.51,2.34-.55-.22-1.21-.36-1.79-.3-1.49.16-2.52,1.02-2.96,2.47-.42,1.41-.08,2.67,1.03,3.65,1.13,1.01,2.41,1.16,3.81.56,1.81-.78,3.38.23,3.41,2.19.03,1.96,0,3.92,0,5.88,0,.28,0,.55,0,.86.27.02.44.05.62.05,2.06,0,4.13,0,6.19,0,1.23,0,2.19.7,2.31,1.85.07.64-.15,1.37-.44,1.96-1.06,2.12.09,4.77,2.33,5.19,1.43.27,2.62-.17,3.46-1.35.86-1.22,1.04-2.59.22-3.85-1.18-1.81.08-3.96,2.29-3.83,2.13.13,4.28.03,6.42.03.27,0,.54,0,.84,0,0-2.56.02-4.98,0-7.41-.01-1.07.28-1.95,1.27-2.45,1.02-.51,1.92-.23,2.79.46,1.26,1,2.82,1.02,4.09.12,1.25-.88,1.79-2.42,1.35-3.9-.71-2.42-3.48-3.29-5.52-1.7-.82.64-1.69.89-2.66.42-.96-.47-1.35-1.3-1.31-2.35.01-.34,0-.67,0-1.01,0-2.14,0-4.27,0-6.51Zm28.86,24.33c0-.36,0-.64,0-.91,0-1.86.07-3.72-.02-5.57-.1-2.29,1.95-3.31,3.62-2.45,1.46.75,3.13.21,4.13-1.1.96-1.25.95-3.05-.02-4.32-.99-1.29-2.63-1.72-4.15-1.09-2.05.85-3.55-.15-3.56-2.39,0-1.88,0-3.77,0-5.65,0-.27-.03-.54-.04-.78-.15-.04-.2-.06-.25-.06-1.91,0-3.82,0-5.73-.01-2.34,0-3.37-1.61-2.38-3.72.75-1.58.34-3.38-1.01-4.46-1.23-.98-3-.97-4.22.03-1.32,1.08-1.81,2.96-.92,4.46.93,1.57-.05,3.77-2.32,3.7-2.16-.07-4.33-.02-6.5-.02-.27,0-.54,0-.81,0v4.04c5.64-.89,9.78,3.82,9.6,8.24-.1,2.32-.92,4.27-2.6,5.84-1.96,1.84-4.32,2.51-7,2.11v4.1c.32,0,.6,0,.88,0,2.11,0,4.23-.02,6.34.01,1.67.03,2.7,1.58,2.13,3.15-.1.27-.22.52-.31.79-.53,1.69.35,3.6,1.97,4.32,1.63.72,3.5.06,4.37-1.55.56-1.03.61-2.1.16-3.2-.84-2.01.17-3.51,2.35-3.52.67,0,1.34,0,2.01,0,1.39,0,2.77,0,4.26,0Zm0,28.98c0-2.21,0-4.3,0-6.39.01-2.22,1.69-3.25,3.67-2.27,1.48.74,3.07.42,4.03-.81.98-1.24.98-2.94,0-4.15-.98-1.23-2.58-1.55-4.03-.82-1.99,1-3.66-.03-3.68-2.26-.01-2.24,0-4.49,0-6.73,0-.27-.02-.55-.04-.84h-3.58c-.17,5.68-4.34,8.27-7.55,8.48-2.01.13-3.84-.37-5.44-1.59-2.26-1.72-3.32-4.06-3.33-6.89h-4.24v24.29c2.36,0,4.67,0,6.99,0,.33,0,.68,0,1,.08,1.41.37,2,1.67,1.51,3.26-.46,1.48.03,2.97,1.25,3.83,1.08.77,2.54.75,3.62-.03,1.17-.85,1.75-2.39,1.19-3.78-.68-1.68.49-3.49,2.51-3.39,2,.1,4.01.02,6.11.02Z"/></svg>