<svg xmlns="http://www.w3.org/2000/svg" xmlns:xlink="http://www.w3.org/1999/xlink" width="500" zoomAndPan="magnify" viewBox="0 0 375 374.999991" height="500" preserveAspectRatio="xMidYMid meet" version="1.0"><defs><g/><clipPath id="ed4261ac3e"><path d="M 66.488281 128.792969 L 184.988281 128.792969 L 184.988281 248.792969 L 66.488281 248.792969 Z M 66.488281 128.792969 " clip-rule="nonzero"/></clipPath></defs><g clip-path="url(#ed4261ac3e)"><path fill="#70a300" d="M 132.816406 128.875 C 156.960938 135.300781 174.753906 157.304688 174.753906 183.46875 C 174.753906 214.671875 149.457031 239.964844 118.257812 239.964844 C 95.105469 239.964844 75.214844 226.035156 66.488281 206.101562 C 73.976562 230.933594 97.019531 249.023438 124.292969 249.023438 C 157.640625 249.023438 184.671875 221.992188 184.671875 188.644531 C 184.671875 158.195312 162.125 133.019531 132.816406 128.875 " fill-opacity="1" fill-rule="nonzero"/></g><path fill="#71cf48" d="M 129.15625 163.6875 L 129.15625 172.222656 L 136.347656 172.222656 L 136.347656 216.980469 C 142.96875 213.183594 148.527344 207.738281 152.445312 201.191406 L 152.445312 158.710938 L 129.15625 163.6875 " fill-opacity="1" fill-rule="nonzero"/><path fill="#71cf48" d="M 138.867188 137.367188 C 152.832031 145.722656 162.183594 160.992188 162.183594 178.449219 C 162.183594 198.292969 150.105469 215.3125 132.894531 222.5625 L 132.894531 175.675781 L 109.609375 180.648438 L 109.609375 193.789062 L 116.792969 193.789062 L 116.792969 226.234375 C 115.980469 226.277344 115.160156 226.296875 114.335938 226.296875 C 114.003906 226.296875 113.675781 226.285156 113.34375 226.277344 L 113.34375 197.238281 L 90.054688 202.214844 L 90.054688 219.683594 C 81.925781 214.886719 75.335938 207.753906 71.214844 199.207031 C 77.851562 219.148438 96.648438 233.53125 118.816406 233.53125 C 146.527344 233.53125 168.988281 211.070312 168.988281 183.359375 C 168.988281 162.78125 156.59375 145.105469 138.867188 137.367188 " fill-opacity="1" fill-rule="nonzero"/><g fill="#6d6d6d" fill-opacity="1"><g transform="translate(196.675773, 217.962876)"><g><path d="M 10.789062 0 C 10.292969 -2.085938 9.972656 -8.929688 10.199219 -16.457031 L 25.34375 -16.457031 C 26.792969 -11.46875 28.335938 -6.257812 30.238281 0 L 37.175781 0 C 32.507812 -15.460938 29.695312 -24.617188 25.117188 -39.714844 C 24.164062 -42.84375 22.351562 -45.789062 19.042969 -45.789062 C 15.730469 -45.789062 13.917969 -42.84375 12.964844 -39.714844 C 8.386719 -24.617188 5.621094 -15.460938 0.90625 0 Z M 10.246094 -17.136719 C 10.65625 -28.609375 12.285156 -41.394531 16.367188 -41.394531 C 17.363281 -41.394531 17.863281 -40.714844 18.179688 -39.714844 C 20.945312 -31.011719 22.984375 -24.253906 25.117188 -17.136719 Z M 10.246094 -17.136719 "/></g></g></g><g fill="#6d6d6d" fill-opacity="1"><g transform="translate(234.751362, 217.962876)"><g><path d="M 9.746094 0 L 9.746094 -44.65625 L 19.449219 -44.65625 C 24.800781 -44.65625 26.929688 -41.394531 26.929688 -37.132812 C 26.929688 -25.253906 13.238281 -24.707031 13.238281 -20.3125 C 13.238281 -17.410156 19.042969 -8.433594 22.851562 -3.445312 C 25.207031 -0.363281 25.34375 0 28.019531 0 L 35.5 0 L 35.5 -0.273438 C 32.234375 -0.273438 18.496094 -20.265625 18.496094 -23.394531 C 18.496094 -26.160156 33.503906 -26.613281 33.503906 -37.539062 C 33.503906 -41.257812 31.101562 -45.335938 26.160156 -45.335938 L 3.171875 -45.335938 L 3.171875 0 Z M 9.746094 0 "/></g></g></g><g fill="#6d6d6d" fill-opacity="1"><g transform="translate(270.243243, 217.962876)"><g><path d="M 21.21875 0.453125 C 28.335938 0.453125 31.101562 -0.863281 33.957031 -3.398438 L 33.957031 -24.347656 L 27.292969 -24.347656 L 27.292969 -1.8125 C 27.292969 -0.90625 25.570312 -0.40625 24.4375 -0.40625 C 16.773438 -0.40625 7.207031 -15.824219 7.207031 -29.015625 C 7.207031 -37.722656 8.976562 -42.980469 15.1875 -42.980469 C 20.3125 -42.980469 25.480469 -40.125 29.0625 -35.90625 L 33.503906 -41.210938 C 31.828125 -43.796875 26.976562 -45.789062 22.304688 -45.789062 C 9.429688 -45.789062 1.8125 -36.40625 1.8125 -23.394531 C 1.8125 -10.835938 8.25 0.453125 21.21875 0.453125 Z M 21.21875 0.453125 "/></g></g></g></svg>