<svg xmlns="http://www.w3.org/2000/svg" xmlns:xlink="http://www.w3.org/1999/xlink" width="500" zoomAndPan="magnify" viewBox="0 0 375 374.999991" height="500" preserveAspectRatio="xMidYMid meet" version="1.0"><defs><clipPath id="ded8705e08"><path d="M 129.058594 126.421875 L 247.558594 126.421875 L 247.558594 247 L 129.058594 247 Z M 129.058594 126.421875 " clip-rule="nonzero"/></clipPath></defs><g clip-path="url(#ded8705e08)"><path fill="#70a300" d="M 195.53125 126.511719 C 219.730469 132.949219 237.558594 155 237.558594 181.222656 C 237.558594 212.496094 212.210938 237.84375 180.9375 237.84375 C 157.734375 237.84375 137.804688 223.882812 129.058594 203.902344 C 136.5625 228.792969 159.65625 246.921875 186.992188 246.921875 C 220.410156 246.921875 247.5 219.828125 247.5 186.410156 C 247.5 155.894531 224.902344 130.664062 195.53125 126.511719 " fill-opacity="1" fill-rule="nonzero"/></g><path fill="#71cf48" d="M 191.863281 161.398438 L 191.863281 169.953125 L 199.070312 169.953125 L 199.070312 214.808594 C 205.707031 211.003906 211.277344 205.542969 215.203125 198.984375 L 215.203125 156.414062 L 191.863281 161.398438 " fill-opacity="1" fill-rule="nonzero"/><path fill="#71cf48" d="M 201.597656 135.023438 C 215.589844 143.398438 224.964844 158.699219 224.964844 176.191406 C 224.964844 196.078125 212.855469 213.136719 195.609375 220.402344 L 195.609375 173.410156 L 172.273438 178.398438 L 172.273438 191.566406 L 179.472656 191.566406 L 179.472656 224.082031 C 178.65625 224.125 177.835938 224.144531 177.011719 224.144531 C 176.679688 224.144531 176.347656 224.132812 176.015625 224.128906 L 176.015625 195.023438 L 152.675781 200.011719 L 152.675781 217.519531 C 144.527344 212.710938 137.925781 205.5625 133.796875 196.996094 C 140.445312 216.980469 159.28125 231.394531 181.5 231.394531 C 209.269531 231.394531 231.78125 208.882812 231.78125 181.113281 C 231.78125 160.492188 219.359375 142.777344 201.597656 135.023438 " fill-opacity="1" fill-rule="nonzero"/></svg>