<svg xmlns="http://www.w3.org/2000/svg" xmlns:xlink="http://www.w3.org/1999/xlink" width="500" zoomAndPan="magnify" viewBox="0 0 375 374.999991" height="500" preserveAspectRatio="xMidYMid meet" version="1.0"><defs><g/><clipPath id="cbb869635e"><path d="M 56.410156 126.03125 L 174.910156 126.03125 L 174.910156 246.78125 L 56.410156 246.78125 Z M 56.410156 126.03125 " clip-rule="nonzero"/></clipPath></defs><g clip-path="url(#cbb869635e)"><path fill="#70a300" d="M 123.101562 126.121094 C 147.375 132.578125 165.265625 154.703125 165.265625 181.011719 C 165.265625 212.382812 139.832031 237.816406 108.460938 237.816406 C 85.179688 237.816406 65.183594 223.808594 56.410156 203.765625 C 63.941406 228.734375 87.105469 246.921875 114.53125 246.921875 C 148.058594 246.921875 175.238281 219.742188 175.238281 186.214844 C 175.238281 155.597656 152.566406 130.285156 123.101562 126.121094 " fill-opacity="1" fill-rule="nonzero"/></g><path fill="#71cf48" d="M 119.421875 161.121094 L 119.421875 169.707031 L 126.648438 169.707031 L 126.648438 214.707031 C 133.308594 210.886719 138.894531 205.410156 142.835938 198.832031 L 142.835938 156.117188 L 119.421875 161.121094 " fill-opacity="1" fill-rule="nonzero"/><path fill="#71cf48" d="M 129.183594 134.660156 C 143.222656 143.058594 152.628906 158.414062 152.628906 175.964844 C 152.628906 195.914062 140.480469 213.03125 123.179688 220.316406 L 123.179688 173.171875 L 99.765625 178.175781 L 99.765625 191.386719 L 106.988281 191.386719 L 106.988281 224.011719 C 106.171875 224.050781 105.347656 224.070312 104.519531 224.070312 C 104.183594 224.070312 103.855469 224.0625 103.519531 224.054688 L 103.519531 194.855469 L 80.105469 199.859375 L 80.105469 217.425781 C 71.929688 212.601562 65.304688 205.429688 61.160156 196.835938 C 67.832031 216.882812 86.734375 231.347656 109.023438 231.347656 C 136.882812 231.347656 159.46875 208.761719 159.46875 180.902344 C 159.46875 160.210938 147.007812 142.441406 129.183594 134.660156 " fill-opacity="1" fill-rule="nonzero"/><g fill="#6d6d6d" fill-opacity="1"><g transform="translate(196.203478, 204.056531)"><g><path d="M 10.699219 0 C 10.203125 -2.066406 9.890625 -8.855469 10.113281 -16.320312 L 25.128906 -16.320312 C 26.570312 -11.375 28.097656 -6.203125 29.984375 0 L 36.863281 0 C 32.234375 -15.328125 29.445312 -24.410156 24.90625 -39.378906 C 23.960938 -42.484375 22.164062 -45.40625 18.882812 -45.40625 C 15.597656 -45.40625 13.800781 -42.484375 12.855469 -39.378906 C 8.316406 -24.410156 5.574219 -15.328125 0.898438 0 Z M 10.160156 -16.992188 C 10.5625 -28.367188 12.183594 -41.042969 16.230469 -41.042969 C 17.21875 -41.042969 17.710938 -40.371094 18.027344 -39.378906 C 20.769531 -30.75 22.792969 -24.050781 24.90625 -16.992188 Z M 10.160156 -16.992188 "/></g></g></g><g fill="#6d6d6d" fill-opacity="1"><g transform="translate(233.964091, 204.056531)"><g><path d="M 9.664062 0 L 9.664062 -44.28125 L 19.285156 -44.28125 C 24.589844 -44.28125 26.703125 -41.042969 26.703125 -36.816406 C 26.703125 -25.039062 13.125 -24.5 13.125 -20.140625 C 13.125 -17.261719 18.882812 -8.363281 22.65625 -3.417969 C 24.996094 -0.359375 25.128906 0 27.78125 0 L 35.199219 0 L 35.199219 -0.269531 C 31.964844 -0.269531 18.339844 -20.09375 18.339844 -23.195312 C 18.339844 -25.9375 33.222656 -26.386719 33.222656 -37.222656 C 33.222656 -40.910156 30.839844 -44.953125 25.9375 -44.953125 L 3.148438 -44.953125 L 3.148438 0 Z M 9.664062 0 "/></g></g></g><g fill="#6d6d6d" fill-opacity="1"><g transform="translate(269.162374, 204.056531)"><g><path d="M 21.039062 0.449219 C 28.097656 0.449219 30.839844 -0.855469 33.671875 -3.371094 L 33.671875 -24.140625 L 27.0625 -24.140625 L 27.0625 -1.796875 C 27.0625 -0.898438 25.355469 -0.40625 24.230469 -0.40625 C 16.632812 -0.40625 7.148438 -15.6875 7.148438 -28.769531 C 7.148438 -37.402344 8.902344 -42.617188 15.058594 -42.617188 C 20.140625 -42.617188 25.265625 -39.785156 28.816406 -35.605469 L 33.222656 -40.863281 C 31.558594 -43.425781 26.75 -45.40625 22.117188 -45.40625 C 9.351562 -45.40625 1.796875 -36.097656 1.796875 -23.195312 C 1.796875 -10.746094 8.183594 0.449219 21.039062 0.449219 Z M 21.039062 0.449219 "/></g></g></g><g fill="#606987" fill-opacity="1"><g transform="translate(196.636999, 222.288473)"><g><path d="M 0.28125 0 L 0.28125 -0.28125 C 0.5 -0.375 0.753906 -0.445312 1.046875 -0.5 L 1.046875 -6.140625 C 0.910156 -6.171875 0.773438 -6.207031 0.640625 -6.25 C 0.503906 -6.289062 0.382812 -6.332031 0.28125 -6.375 L 0.28125 -6.65625 L 1.25 -6.65625 C 1.351562 -6.65625 1.476562 -6.65625 1.625 -6.65625 C 1.769531 -6.664062 1.921875 -6.675781 2.078125 -6.6875 C 2.234375 -6.695312 2.378906 -6.703125 2.515625 -6.703125 C 2.660156 -6.710938 2.78125 -6.71875 2.875 -6.71875 C 3.957031 -6.71875 4.785156 -6.429688 5.359375 -5.859375 C 5.941406 -5.285156 6.234375 -4.46875 6.234375 -3.40625 C 6.234375 -2.90625 6.160156 -2.441406 6.015625 -2.015625 C 5.867188 -1.585938 5.648438 -1.21875 5.359375 -0.90625 C 5.078125 -0.601562 4.710938 -0.363281 4.265625 -0.1875 C 3.816406 -0.0078125 3.285156 0.078125 2.671875 0.078125 C 2.578125 0.078125 2.46875 0.0703125 2.34375 0.0625 C 2.226562 0.0625 2.101562 0.0546875 1.96875 0.046875 C 1.84375 0.0351562 1.710938 0.0234375 1.578125 0.015625 C 1.441406 0.00390625 1.3125 0 1.1875 0 Z M 2.75 -6.234375 C 2.582031 -6.234375 2.421875 -6.226562 2.265625 -6.21875 C 2.117188 -6.21875 2 -6.207031 1.90625 -6.1875 L 1.90625 -0.4375 C 1.9375 -0.425781 1.992188 -0.421875 2.078125 -0.421875 C 2.160156 -0.421875 2.25 -0.414062 2.34375 -0.40625 C 2.4375 -0.40625 2.523438 -0.40625 2.609375 -0.40625 C 2.703125 -0.40625 2.765625 -0.40625 2.796875 -0.40625 C 3.234375 -0.40625 3.601562 -0.488281 3.90625 -0.65625 C 4.21875 -0.820312 4.46875 -1.039062 4.65625 -1.3125 C 4.851562 -1.59375 4.992188 -1.910156 5.078125 -2.265625 C 5.171875 -2.628906 5.21875 -3.007812 5.21875 -3.40625 C 5.21875 -3.71875 5.171875 -4.039062 5.078125 -4.375 C 4.992188 -4.707031 4.851562 -5.007812 4.65625 -5.28125 C 4.46875 -5.5625 4.210938 -5.789062 3.890625 -5.96875 C 3.578125 -6.144531 3.195312 -6.234375 2.75 -6.234375 Z M 2.75 -6.234375 "/></g></g></g><g fill="#606987" fill-opacity="1"><g transform="translate(203.861122, 222.288473)"><g><path d="M 4.78125 -6.65625 C 4.769531 -6.394531 4.753906 -6.132812 4.734375 -5.875 C 4.722656 -5.625 4.703125 -5.367188 4.671875 -5.109375 L 4.421875 -5.109375 L 4.03125 -6.15625 L 1.96875 -6.15625 L 1.96875 -3.640625 L 3.515625 -3.640625 L 3.890625 -4.34375 L 4.125 -4.34375 C 4.164062 -3.71875 4.164062 -3.078125 4.125 -2.421875 L 3.890625 -2.421875 L 3.515625 -3.140625 L 1.96875 -3.140625 L 1.96875 -0.5 L 4.15625 -0.5 L 4.609375 -1.640625 L 4.859375 -1.640625 C 4.898438 -1.367188 4.929688 -1.097656 4.953125 -0.828125 C 4.972656 -0.554688 4.972656 -0.28125 4.953125 0 L 0.28125 0 L 0.28125 -0.28125 C 0.5 -0.375 0.753906 -0.445312 1.046875 -0.5 L 1.046875 -6.140625 C 0.921875 -6.160156 0.789062 -6.191406 0.65625 -6.234375 C 0.53125 -6.273438 0.40625 -6.320312 0.28125 -6.375 L 0.28125 -6.65625 Z M 4.78125 -6.65625 "/></g></g></g><g fill="#606987" fill-opacity="1"><g transform="translate(209.889235, 222.288473)"><g><path d="M 1.421875 -0.65625 C 1.492188 -0.582031 1.59375 -0.515625 1.71875 -0.453125 C 1.84375 -0.398438 2.023438 -0.375 2.265625 -0.375 C 2.460938 -0.375 2.648438 -0.398438 2.828125 -0.453125 C 3.003906 -0.515625 3.15625 -0.597656 3.28125 -0.703125 C 3.414062 -0.804688 3.519531 -0.929688 3.59375 -1.078125 C 3.675781 -1.222656 3.71875 -1.394531 3.71875 -1.59375 C 3.71875 -1.84375 3.640625 -2.050781 3.484375 -2.21875 C 3.328125 -2.394531 3.132812 -2.546875 2.90625 -2.671875 C 2.675781 -2.804688 2.421875 -2.9375 2.140625 -3.0625 C 1.867188 -3.195312 1.617188 -3.347656 1.390625 -3.515625 C 1.160156 -3.691406 0.96875 -3.898438 0.8125 -4.140625 C 0.65625 -4.390625 0.578125 -4.695312 0.578125 -5.0625 C 0.578125 -5.332031 0.625 -5.570312 0.71875 -5.78125 C 0.8125 -5.988281 0.945312 -6.164062 1.125 -6.3125 C 1.300781 -6.457031 1.507812 -6.566406 1.75 -6.640625 C 1.988281 -6.722656 2.257812 -6.765625 2.5625 -6.765625 C 2.945312 -6.765625 3.296875 -6.734375 3.609375 -6.671875 C 3.929688 -6.609375 4.1875 -6.535156 4.375 -6.453125 C 4.375 -6.335938 4.363281 -6.207031 4.34375 -6.0625 C 4.332031 -5.925781 4.3125 -5.78125 4.28125 -5.625 C 4.257812 -5.476562 4.238281 -5.332031 4.21875 -5.1875 C 4.195312 -5.050781 4.171875 -4.925781 4.140625 -4.8125 L 3.890625 -4.8125 L 3.515625 -6.125 C 3.398438 -6.164062 3.253906 -6.195312 3.078125 -6.21875 C 2.910156 -6.25 2.726562 -6.265625 2.53125 -6.265625 C 2.207031 -6.265625 1.945312 -6.175781 1.75 -6 C 1.550781 -5.820312 1.453125 -5.570312 1.453125 -5.25 C 1.453125 -4.988281 1.53125 -4.769531 1.6875 -4.59375 C 1.84375 -4.414062 2.035156 -4.253906 2.265625 -4.109375 C 2.503906 -3.972656 2.753906 -3.835938 3.015625 -3.703125 C 3.285156 -3.578125 3.535156 -3.425781 3.765625 -3.25 C 4.003906 -3.082031 4.203125 -2.878906 4.359375 -2.640625 C 4.515625 -2.410156 4.59375 -2.125 4.59375 -1.78125 C 4.59375 -1.488281 4.539062 -1.222656 4.4375 -0.984375 C 4.332031 -0.753906 4.179688 -0.554688 3.984375 -0.390625 C 3.796875 -0.234375 3.554688 -0.109375 3.265625 -0.015625 C 2.984375 0.0664062 2.660156 0.109375 2.296875 0.109375 C 1.898438 0.109375 1.539062 0.0625 1.21875 -0.03125 C 0.90625 -0.125 0.679688 -0.222656 0.546875 -0.328125 C 0.554688 -0.441406 0.566406 -0.570312 0.578125 -0.71875 C 0.597656 -0.875 0.617188 -1.03125 0.640625 -1.1875 C 0.660156 -1.351562 0.679688 -1.507812 0.703125 -1.65625 C 0.734375 -1.8125 0.757812 -1.941406 0.78125 -2.046875 L 1.03125 -2.046875 Z M 1.421875 -0.65625 "/></g></g></g><g fill="#606987" fill-opacity="1"><g transform="translate(215.48071, 222.288473)"><g><path d="M 1.96875 -0.5 C 2.132812 -0.476562 2.289062 -0.445312 2.4375 -0.40625 C 2.59375 -0.363281 2.738281 -0.320312 2.875 -0.28125 L 2.875 0 L 0.28125 0 L 0.28125 -0.28125 C 0.40625 -0.34375 0.53125 -0.390625 0.65625 -0.421875 C 0.789062 -0.453125 0.921875 -0.476562 1.046875 -0.5 L 1.046875 -6.140625 C 0.910156 -6.160156 0.773438 -6.191406 0.640625 -6.234375 C 0.515625 -6.273438 0.394531 -6.320312 0.28125 -6.375 L 0.28125 -6.65625 L 1.125 -6.65625 C 1.382812 -6.65625 1.660156 -6.664062 1.953125 -6.6875 C 2.253906 -6.707031 2.539062 -6.71875 2.8125 -6.71875 C 3.125 -6.71875 3.425781 -6.6875 3.71875 -6.625 C 4.019531 -6.5625 4.285156 -6.445312 4.515625 -6.28125 C 4.742188 -6.125 4.929688 -5.914062 5.078125 -5.65625 C 5.222656 -5.394531 5.296875 -5.066406 5.296875 -4.671875 C 5.296875 -4.296875 5.222656 -3.972656 5.078125 -3.703125 C 4.929688 -3.441406 4.734375 -3.222656 4.484375 -3.046875 C 4.242188 -2.878906 3.96875 -2.753906 3.65625 -2.671875 C 3.34375 -2.597656 3.023438 -2.5625 2.703125 -2.5625 C 2.671875 -2.5625 2.617188 -2.5625 2.546875 -2.5625 C 2.484375 -2.5625 2.410156 -2.5625 2.328125 -2.5625 C 2.253906 -2.570312 2.179688 -2.578125 2.109375 -2.578125 C 2.046875 -2.585938 2 -2.597656 1.96875 -2.609375 Z M 2.609375 -6.234375 C 2.460938 -6.234375 2.335938 -6.226562 2.234375 -6.21875 C 2.140625 -6.21875 2.050781 -6.207031 1.96875 -6.1875 L 1.96875 -3.109375 C 2 -3.097656 2.039062 -3.085938 2.09375 -3.078125 C 2.15625 -3.078125 2.21875 -3.070312 2.28125 -3.0625 C 2.351562 -3.0625 2.421875 -3.0625 2.484375 -3.0625 C 2.546875 -3.0625 2.597656 -3.0625 2.640625 -3.0625 C 2.859375 -3.0625 3.066406 -3.085938 3.265625 -3.140625 C 3.460938 -3.203125 3.632812 -3.300781 3.78125 -3.4375 C 3.9375 -3.570312 4.054688 -3.738281 4.140625 -3.9375 C 4.234375 -4.144531 4.28125 -4.390625 4.28125 -4.671875 C 4.28125 -5.191406 4.128906 -5.582031 3.828125 -5.84375 C 3.535156 -6.101562 3.128906 -6.234375 2.609375 -6.234375 Z M 2.609375 -6.234375 "/></g></g></g><g fill="#606987" fill-opacity="1"><g transform="translate(221.641711, 222.288473)"><g><path d="M 2.109375 0 L 0 0 L 0 -0.28125 C 0.226562 -0.375 0.457031 -0.445312 0.6875 -0.5 L 3.09375 -6.765625 L 3.359375 -6.765625 L 5.765625 -0.5 C 5.890625 -0.476562 6.015625 -0.453125 6.140625 -0.421875 C 6.265625 -0.390625 6.378906 -0.34375 6.484375 -0.28125 L 6.484375 0 L 4.0625 0 L 4.0625 -0.28125 C 4.1875 -0.320312 4.3125 -0.363281 4.4375 -0.40625 C 4.570312 -0.445312 4.703125 -0.476562 4.828125 -0.5 L 4.1875 -2.234375 L 1.921875 -2.234375 L 1.296875 -0.5 C 1.554688 -0.46875 1.828125 -0.394531 2.109375 -0.28125 Z M 2.109375 -2.734375 L 4.03125 -2.734375 L 3.28125 -4.75 L 3.09375 -5.5625 L 3.078125 -5.5625 L 2.84375 -4.734375 Z M 2.109375 -2.734375 "/></g></g></g><g fill="#606987" fill-opacity="1"><g transform="translate(228.628529, 222.288473)"><g><path d="M 5.203125 -1.734375 L 5.4375 -1.734375 C 5.46875 -1.554688 5.492188 -1.332031 5.515625 -1.0625 C 5.546875 -0.789062 5.554688 -0.53125 5.546875 -0.28125 C 5.453125 -0.195312 5.335938 -0.128906 5.203125 -0.078125 C 5.066406 -0.0351562 4.925781 0 4.78125 0.03125 C 4.632812 0.0625 4.484375 0.0820312 4.328125 0.09375 C 4.171875 0.101562 4.023438 0.109375 3.890625 0.109375 C 3.359375 0.109375 2.878906 0.0390625 2.453125 -0.09375 C 2.035156 -0.226562 1.679688 -0.429688 1.390625 -0.703125 C 1.109375 -0.984375 0.890625 -1.34375 0.734375 -1.78125 C 0.578125 -2.21875 0.5 -2.734375 0.5 -3.328125 C 0.5 -3.941406 0.582031 -4.46875 0.75 -4.90625 C 0.925781 -5.34375 1.160156 -5.695312 1.453125 -5.96875 C 1.742188 -6.25 2.082031 -6.453125 2.46875 -6.578125 C 2.851562 -6.703125 3.257812 -6.765625 3.6875 -6.765625 C 4.101562 -6.765625 4.453125 -6.738281 4.734375 -6.6875 C 5.023438 -6.632812 5.273438 -6.550781 5.484375 -6.4375 C 5.484375 -6.332031 5.476562 -6.210938 5.46875 -6.078125 C 5.46875 -5.941406 5.460938 -5.796875 5.453125 -5.640625 C 5.441406 -5.492188 5.425781 -5.347656 5.40625 -5.203125 C 5.382812 -5.054688 5.363281 -4.925781 5.34375 -4.8125 L 5.09375 -4.8125 L 4.609375 -6.171875 C 4.535156 -6.210938 4.414062 -6.238281 4.25 -6.25 C 4.09375 -6.257812 3.9375 -6.265625 3.78125 -6.265625 C 3.46875 -6.265625 3.164062 -6.207031 2.875 -6.09375 C 2.59375 -5.976562 2.347656 -5.796875 2.140625 -5.546875 C 1.929688 -5.304688 1.757812 -5 1.625 -4.625 C 1.5 -4.257812 1.4375 -3.828125 1.4375 -3.328125 C 1.4375 -2.878906 1.492188 -2.472656 1.609375 -2.109375 C 1.722656 -1.742188 1.890625 -1.429688 2.109375 -1.171875 C 2.328125 -0.910156 2.585938 -0.710938 2.890625 -0.578125 C 3.203125 -0.441406 3.554688 -0.375 3.953125 -0.375 C 4.160156 -0.375 4.332031 -0.390625 4.46875 -0.421875 C 4.613281 -0.453125 4.707031 -0.492188 4.75 -0.546875 Z M 5.203125 -1.734375 "/></g></g></g><g fill="#606987" fill-opacity="1"><g transform="translate(235.245153, 222.288473)"><g><path d="M 2.671875 0 L 0.28125 0 L 0.28125 -0.28125 C 0.53125 -0.375 0.785156 -0.445312 1.046875 -0.5 L 1.046875 -6.140625 C 0.753906 -6.179688 0.5 -6.257812 0.28125 -6.375 L 0.28125 -6.65625 L 2.671875 -6.65625 L 2.671875 -6.375 C 2.566406 -6.3125 2.453125 -6.257812 2.328125 -6.21875 C 2.210938 -6.1875 2.09375 -6.160156 1.96875 -6.140625 L 1.96875 -3.65625 L 4.953125 -3.65625 L 4.953125 -6.140625 C 4.816406 -6.171875 4.691406 -6.203125 4.578125 -6.234375 C 4.460938 -6.273438 4.347656 -6.320312 4.234375 -6.375 L 4.234375 -6.65625 L 6.640625 -6.65625 L 6.640625 -6.375 C 6.523438 -6.3125 6.398438 -6.257812 6.265625 -6.21875 C 6.128906 -6.1875 5.992188 -6.160156 5.859375 -6.140625 L 5.859375 -0.5 C 6.003906 -0.476562 6.144531 -0.445312 6.28125 -0.40625 C 6.414062 -0.363281 6.535156 -0.320312 6.640625 -0.28125 L 6.640625 0 L 4.234375 0 L 4.234375 -0.28125 C 4.460938 -0.375 4.703125 -0.445312 4.953125 -0.5 L 4.953125 -3.15625 L 1.96875 -3.15625 L 1.96875 -0.5 C 2.09375 -0.476562 2.210938 -0.445312 2.328125 -0.40625 C 2.453125 -0.363281 2.566406 -0.320312 2.671875 -0.28125 Z M 2.671875 0 "/></g></g></g><g fill="#606987" fill-opacity="1"><g transform="translate(242.659122, 222.288473)"><g><path d="M 0.5 -3.328125 C 0.5 -3.816406 0.566406 -4.269531 0.703125 -4.6875 C 0.835938 -5.113281 1.035156 -5.476562 1.296875 -5.78125 C 1.554688 -6.09375 1.867188 -6.332031 2.234375 -6.5 C 2.609375 -6.675781 3.035156 -6.765625 3.515625 -6.765625 C 3.992188 -6.765625 4.414062 -6.675781 4.78125 -6.5 C 5.15625 -6.332031 5.472656 -6.09375 5.734375 -5.78125 C 5.992188 -5.476562 6.191406 -5.113281 6.328125 -4.6875 C 6.460938 -4.269531 6.53125 -3.816406 6.53125 -3.328125 C 6.53125 -2.828125 6.460938 -2.367188 6.328125 -1.953125 C 6.191406 -1.535156 5.992188 -1.171875 5.734375 -0.859375 C 5.472656 -0.554688 5.15625 -0.316406 4.78125 -0.140625 C 4.414062 0.0234375 3.992188 0.109375 3.515625 0.109375 C 3.035156 0.109375 2.609375 0.0234375 2.234375 -0.140625 C 1.867188 -0.316406 1.554688 -0.554688 1.296875 -0.859375 C 1.035156 -1.171875 0.835938 -1.535156 0.703125 -1.953125 C 0.566406 -2.367188 0.5 -2.828125 0.5 -3.328125 Z M 1.515625 -3.328125 C 1.515625 -2.921875 1.554688 -2.535156 1.640625 -2.171875 C 1.734375 -1.816406 1.863281 -1.503906 2.03125 -1.234375 C 2.207031 -0.972656 2.421875 -0.765625 2.671875 -0.609375 C 2.929688 -0.453125 3.238281 -0.375 3.59375 -0.375 C 3.914062 -0.375 4.195312 -0.453125 4.4375 -0.609375 C 4.6875 -0.765625 4.882812 -0.972656 5.03125 -1.234375 C 5.1875 -1.503906 5.304688 -1.816406 5.390625 -2.171875 C 5.472656 -2.535156 5.515625 -2.921875 5.515625 -3.328125 C 5.515625 -3.734375 5.472656 -4.113281 5.390625 -4.46875 C 5.304688 -4.820312 5.175781 -5.128906 5 -5.390625 C 4.832031 -5.660156 4.617188 -5.875 4.359375 -6.03125 C 4.097656 -6.1875 3.789062 -6.265625 3.4375 -6.265625 C 3.09375 -6.265625 2.796875 -6.1875 2.546875 -6.03125 C 2.304688 -5.875 2.109375 -5.660156 1.953125 -5.390625 C 1.804688 -5.128906 1.695312 -4.820312 1.625 -4.46875 C 1.550781 -4.113281 1.515625 -3.734375 1.515625 -3.328125 Z M 1.515625 -3.328125 "/></g></g></g><g fill="#606987" fill-opacity="1"><g transform="translate(250.186996, 222.288473)"><g/></g></g><g fill="#606987" fill-opacity="1"><g transform="translate(252.997259, 222.288473)"><g><path d="M 5.203125 -1.734375 L 5.4375 -1.734375 C 5.46875 -1.554688 5.492188 -1.332031 5.515625 -1.0625 C 5.546875 -0.789062 5.554688 -0.53125 5.546875 -0.28125 C 5.453125 -0.195312 5.335938 -0.128906 5.203125 -0.078125 C 5.066406 -0.0351562 4.925781 0 4.78125 0.03125 C 4.632812 0.0625 4.484375 0.0820312 4.328125 0.09375 C 4.171875 0.101562 4.023438 0.109375 3.890625 0.109375 C 3.359375 0.109375 2.878906 0.0390625 2.453125 -0.09375 C 2.035156 -0.226562 1.679688 -0.429688 1.390625 -0.703125 C 1.109375 -0.984375 0.890625 -1.34375 0.734375 -1.78125 C 0.578125 -2.21875 0.5 -2.734375 0.5 -3.328125 C 0.5 -3.941406 0.582031 -4.46875 0.75 -4.90625 C 0.925781 -5.34375 1.160156 -5.695312 1.453125 -5.96875 C 1.742188 -6.25 2.082031 -6.453125 2.46875 -6.578125 C 2.851562 -6.703125 3.257812 -6.765625 3.6875 -6.765625 C 4.101562 -6.765625 4.453125 -6.738281 4.734375 -6.6875 C 5.023438 -6.632812 5.273438 -6.550781 5.484375 -6.4375 C 5.484375 -6.332031 5.476562 -6.210938 5.46875 -6.078125 C 5.46875 -5.941406 5.460938 -5.796875 5.453125 -5.640625 C 5.441406 -5.492188 5.425781 -5.347656 5.40625 -5.203125 C 5.382812 -5.054688 5.363281 -4.925781 5.34375 -4.8125 L 5.09375 -4.8125 L 4.609375 -6.171875 C 4.535156 -6.210938 4.414062 -6.238281 4.25 -6.25 C 4.09375 -6.257812 3.9375 -6.265625 3.78125 -6.265625 C 3.46875 -6.265625 3.164062 -6.207031 2.875 -6.09375 C 2.59375 -5.976562 2.347656 -5.796875 2.140625 -5.546875 C 1.929688 -5.304688 1.757812 -5 1.625 -4.625 C 1.5 -4.257812 1.4375 -3.828125 1.4375 -3.328125 C 1.4375 -2.878906 1.492188 -2.472656 1.609375 -2.109375 C 1.722656 -1.742188 1.890625 -1.429688 2.109375 -1.171875 C 2.328125 -0.910156 2.585938 -0.710938 2.890625 -0.578125 C 3.203125 -0.441406 3.554688 -0.375 3.953125 -0.375 C 4.160156 -0.375 4.332031 -0.390625 4.46875 -0.421875 C 4.613281 -0.453125 4.707031 -0.492188 4.75 -0.546875 Z M 5.203125 -1.734375 "/></g></g></g><g fill="#606987" fill-opacity="1"><g transform="translate(259.613883, 222.288473)"><g><path d="M 0.5 -3.328125 C 0.5 -3.816406 0.566406 -4.269531 0.703125 -4.6875 C 0.835938 -5.113281 1.035156 -5.476562 1.296875 -5.78125 C 1.554688 -6.09375 1.867188 -6.332031 2.234375 -6.5 C 2.609375 -6.675781 3.035156 -6.765625 3.515625 -6.765625 C 3.992188 -6.765625 4.414062 -6.675781 4.78125 -6.5 C 5.15625 -6.332031 5.472656 -6.09375 5.734375 -5.78125 C 5.992188 -5.476562 6.191406 -5.113281 6.328125 -4.6875 C 6.460938 -4.269531 6.53125 -3.816406 6.53125 -3.328125 C 6.53125 -2.828125 6.460938 -2.367188 6.328125 -1.953125 C 6.191406 -1.535156 5.992188 -1.171875 5.734375 -0.859375 C 5.472656 -0.554688 5.15625 -0.316406 4.78125 -0.140625 C 4.414062 0.0234375 3.992188 0.109375 3.515625 0.109375 C 3.035156 0.109375 2.609375 0.0234375 2.234375 -0.140625 C 1.867188 -0.316406 1.554688 -0.554688 1.296875 -0.859375 C 1.035156 -1.171875 0.835938 -1.535156 0.703125 -1.953125 C 0.566406 -2.367188 0.5 -2.828125 0.5 -3.328125 Z M 1.515625 -3.328125 C 1.515625 -2.921875 1.554688 -2.535156 1.640625 -2.171875 C 1.734375 -1.816406 1.863281 -1.503906 2.03125 -1.234375 C 2.207031 -0.972656 2.421875 -0.765625 2.671875 -0.609375 C 2.929688 -0.453125 3.238281 -0.375 3.59375 -0.375 C 3.914062 -0.375 4.195312 -0.453125 4.4375 -0.609375 C 4.6875 -0.765625 4.882812 -0.972656 5.03125 -1.234375 C 5.1875 -1.503906 5.304688 -1.816406 5.390625 -2.171875 C 5.472656 -2.535156 5.515625 -2.921875 5.515625 -3.328125 C 5.515625 -3.734375 5.472656 -4.113281 5.390625 -4.46875 C 5.304688 -4.820312 5.175781 -5.128906 5 -5.390625 C 4.832031 -5.660156 4.617188 -5.875 4.359375 -6.03125 C 4.097656 -6.1875 3.789062 -6.265625 3.4375 -6.265625 C 3.09375 -6.265625 2.796875 -6.1875 2.546875 -6.03125 C 2.304688 -5.875 2.109375 -5.660156 1.953125 -5.390625 C 1.804688 -5.128906 1.695312 -4.820312 1.625 -4.46875 C 1.550781 -4.113281 1.515625 -3.734375 1.515625 -3.328125 Z M 1.515625 -3.328125 "/></g></g></g><g fill="#606987" fill-opacity="1"><g transform="translate(267.141755, 222.288473)"><g><path d="M 4.625 -6.65625 L 6.671875 -6.65625 L 6.671875 -6.375 C 6.410156 -6.195312 6.15625 -6.070312 5.90625 -6 L 5.90625 0.109375 L 5.359375 0.109375 L 1.90625 -5.125 L 1.53125 -5.859375 L 1.515625 -5.859375 L 1.59375 -5.125 L 1.59375 -0.609375 C 1.851562 -0.535156 2.097656 -0.425781 2.328125 -0.28125 L 2.328125 0 L 0.28125 0 L 0.28125 -0.28125 C 0.394531 -0.34375 0.515625 -0.398438 0.640625 -0.453125 C 0.773438 -0.515625 0.910156 -0.566406 1.046875 -0.609375 L 1.046875 -6.046875 C 0.921875 -6.097656 0.796875 -6.148438 0.671875 -6.203125 C 0.554688 -6.265625 0.441406 -6.328125 0.328125 -6.390625 L 0.328125 -6.65625 L 1.9375 -6.65625 L 4.9375 -2.140625 L 5.375 -1.328125 L 5.40625 -1.328125 L 5.359375 -2.140625 L 5.359375 -6 C 5.222656 -6.050781 5.09375 -6.109375 4.96875 -6.171875 C 4.84375 -6.234375 4.726562 -6.300781 4.625 -6.375 Z M 4.625 -6.65625 "/></g></g></g><g fill="#606987" fill-opacity="1"><g transform="translate(274.593683, 222.288473)"><g><path d="M 4.28125 0 L 1.609375 0 L 1.609375 -0.28125 C 1.742188 -0.320312 1.878906 -0.363281 2.015625 -0.40625 C 2.160156 -0.445312 2.316406 -0.476562 2.484375 -0.5 L 2.484375 -6.15625 L 1.03125 -6.15625 L 0.53125 -4.796875 L 0.296875 -4.796875 C 0.273438 -4.921875 0.257812 -5.0625 0.25 -5.21875 C 0.238281 -5.382812 0.226562 -5.550781 0.21875 -5.71875 C 0.207031 -5.882812 0.195312 -6.046875 0.1875 -6.203125 C 0.1875 -6.367188 0.1875 -6.519531 0.1875 -6.65625 L 5.703125 -6.65625 C 5.703125 -6.519531 5.695312 -6.375 5.6875 -6.21875 C 5.6875 -6.0625 5.679688 -5.898438 5.671875 -5.734375 C 5.660156 -5.566406 5.648438 -5.398438 5.640625 -5.234375 C 5.628906 -5.078125 5.613281 -4.929688 5.59375 -4.796875 L 5.34375 -4.796875 L 4.859375 -6.15625 L 3.40625 -6.15625 L 3.40625 -0.5 C 3.5625 -0.46875 3.710938 -0.4375 3.859375 -0.40625 C 4.003906 -0.375 4.144531 -0.332031 4.28125 -0.28125 Z M 4.28125 0 "/></g></g></g><g fill="#606987" fill-opacity="1"><g transform="translate(280.973003, 222.288473)"><g><path d="M 2.109375 0 L 0 0 L 0 -0.28125 C 0.226562 -0.375 0.457031 -0.445312 0.6875 -0.5 L 3.09375 -6.765625 L 3.359375 -6.765625 L 5.765625 -0.5 C 5.890625 -0.476562 6.015625 -0.453125 6.140625 -0.421875 C 6.265625 -0.390625 6.378906 -0.34375 6.484375 -0.28125 L 6.484375 0 L 4.0625 0 L 4.0625 -0.28125 C 4.1875 -0.320312 4.3125 -0.363281 4.4375 -0.40625 C 4.570312 -0.445312 4.703125 -0.476562 4.828125 -0.5 L 4.1875 -2.234375 L 1.921875 -2.234375 L 1.296875 -0.5 C 1.554688 -0.46875 1.828125 -0.394531 2.109375 -0.28125 Z M 2.109375 -2.734375 L 4.03125 -2.734375 L 3.28125 -4.75 L 3.09375 -5.5625 L 3.078125 -5.5625 L 2.84375 -4.734375 Z M 2.109375 -2.734375 "/></g></g></g><g fill="#606987" fill-opacity="1"><g transform="translate(287.959821, 222.288473)"><g><path d="M 0.28125 0 L 0.28125 -0.28125 C 0.53125 -0.394531 0.785156 -0.46875 1.046875 -0.5 L 1.046875 -6.140625 C 0.921875 -6.160156 0.789062 -6.191406 0.65625 -6.234375 C 0.53125 -6.273438 0.40625 -6.320312 0.28125 -6.375 L 0.28125 -6.65625 L 1.28125 -6.65625 C 1.40625 -6.65625 1.519531 -6.65625 1.625 -6.65625 C 1.738281 -6.664062 1.851562 -6.671875 1.96875 -6.671875 C 2.09375 -6.679688 2.222656 -6.6875 2.359375 -6.6875 C 2.503906 -6.695312 2.664062 -6.703125 2.84375 -6.703125 C 3.09375 -6.703125 3.347656 -6.679688 3.609375 -6.640625 C 3.878906 -6.597656 4.117188 -6.519531 4.328125 -6.40625 C 4.535156 -6.289062 4.707031 -6.128906 4.84375 -5.921875 C 4.976562 -5.722656 5.046875 -5.457031 5.046875 -5.125 C 5.046875 -4.96875 5.019531 -4.804688 4.96875 -4.640625 C 4.914062 -4.472656 4.835938 -4.316406 4.734375 -4.171875 C 4.628906 -4.035156 4.5 -3.910156 4.34375 -3.796875 C 4.1875 -3.691406 4 -3.613281 3.78125 -3.5625 L 3.78125 -3.53125 C 3.96875 -3.5 4.15625 -3.441406 4.34375 -3.359375 C 4.53125 -3.285156 4.695312 -3.179688 4.84375 -3.046875 C 4.988281 -2.921875 5.109375 -2.765625 5.203125 -2.578125 C 5.296875 -2.390625 5.34375 -2.160156 5.34375 -1.890625 C 5.34375 -1.546875 5.265625 -1.25 5.109375 -1 C 4.960938 -0.757812 4.765625 -0.554688 4.515625 -0.390625 C 4.273438 -0.234375 4 -0.117188 3.6875 -0.046875 C 3.375 0.0234375 3.0625 0.0625 2.75 0.0625 C 2.519531 0.0625 2.265625 0.0507812 1.984375 0.03125 C 1.710938 0.0078125 1.445312 0 1.1875 0 Z M 2.8125 -0.4375 C 3.039062 -0.4375 3.253906 -0.46875 3.453125 -0.53125 C 3.648438 -0.601562 3.820312 -0.703125 3.96875 -0.828125 C 4.113281 -0.953125 4.222656 -1.097656 4.296875 -1.265625 C 4.378906 -1.441406 4.421875 -1.632812 4.421875 -1.84375 C 4.421875 -2.09375 4.367188 -2.300781 4.265625 -2.46875 C 4.171875 -2.632812 4.039062 -2.765625 3.875 -2.859375 C 3.707031 -2.960938 3.515625 -3.035156 3.296875 -3.078125 C 3.078125 -3.117188 2.851562 -3.140625 2.625 -3.140625 L 1.90625 -3.140625 L 1.90625 -0.515625 C 2 -0.484375 2.101562 -0.460938 2.21875 -0.453125 C 2.34375 -0.441406 2.539062 -0.4375 2.8125 -0.4375 Z M 2.390625 -3.625 C 2.492188 -3.625 2.617188 -3.628906 2.765625 -3.640625 C 2.921875 -3.648438 3.046875 -3.660156 3.140625 -3.671875 C 3.429688 -3.773438 3.664062 -3.9375 3.84375 -4.15625 C 4.03125 -4.382812 4.125 -4.648438 4.125 -4.953125 C 4.125 -5.378906 4 -5.695312 3.75 -5.90625 C 3.5 -6.113281 3.164062 -6.21875 2.75 -6.21875 C 2.550781 -6.21875 2.382812 -6.210938 2.25 -6.203125 C 2.113281 -6.191406 2 -6.179688 1.90625 -6.171875 L 1.90625 -3.625 Z M 2.390625 -3.625 "/></g></g></g><g fill="#606987" fill-opacity="1"><g transform="translate(294.301169, 222.288473)"><g><path d="M 0.28125 -6.65625 L 2.875 -6.65625 L 2.875 -6.375 C 2.726562 -6.3125 2.578125 -6.257812 2.421875 -6.21875 C 2.265625 -6.1875 2.113281 -6.160156 1.96875 -6.140625 L 1.96875 -0.5 L 4.15625 -0.5 L 4.71875 -2.03125 L 4.953125 -2.03125 C 4.972656 -1.894531 4.988281 -1.738281 5 -1.5625 C 5.019531 -1.382812 5.035156 -1.203125 5.046875 -1.015625 C 5.054688 -0.828125 5.0625 -0.644531 5.0625 -0.46875 C 5.0625 -0.289062 5.054688 -0.132812 5.046875 0 L 0.28125 0 L 0.28125 -0.28125 C 0.425781 -0.34375 0.5625 -0.390625 0.6875 -0.421875 C 0.820312 -0.453125 0.941406 -0.476562 1.046875 -0.5 L 1.046875 -6.140625 C 0.910156 -6.160156 0.773438 -6.191406 0.640625 -6.234375 C 0.503906 -6.273438 0.382812 -6.320312 0.28125 -6.375 Z M 0.28125 -6.65625 "/></g></g></g><g fill="#606987" fill-opacity="1"><g transform="translate(300.016039, 222.288473)"><g><path d="M 4.78125 -6.65625 C 4.769531 -6.394531 4.753906 -6.132812 4.734375 -5.875 C 4.722656 -5.625 4.703125 -5.367188 4.671875 -5.109375 L 4.421875 -5.109375 L 4.03125 -6.15625 L 1.96875 -6.15625 L 1.96875 -3.640625 L 3.515625 -3.640625 L 3.890625 -4.34375 L 4.125 -4.34375 C 4.164062 -3.71875 4.164062 -3.078125 4.125 -2.421875 L 3.890625 -2.421875 L 3.515625 -3.140625 L 1.96875 -3.140625 L 1.96875 -0.5 L 4.15625 -0.5 L 4.609375 -1.640625 L 4.859375 -1.640625 C 4.898438 -1.367188 4.929688 -1.097656 4.953125 -0.828125 C 4.972656 -0.554688 4.972656 -0.28125 4.953125 0 L 0.28125 0 L 0.28125 -0.28125 C 0.5 -0.375 0.753906 -0.445312 1.046875 -0.5 L 1.046875 -6.140625 C 0.921875 -6.160156 0.789062 -6.191406 0.65625 -6.234375 C 0.53125 -6.273438 0.40625 -6.320312 0.28125 -6.375 L 0.28125 -6.65625 Z M 4.78125 -6.65625 "/></g></g></g><g fill="#606987" fill-opacity="1"><g transform="translate(203.457311, 235.038472)"><g><path d="M 4.03125 -6.65625 L 6.125 -6.65625 L 6.125 -6.375 C 5.875 -6.25 5.628906 -6.171875 5.390625 -6.140625 L 3.59375 -2.828125 L 3.59375 -0.5 C 3.84375 -0.46875 4.085938 -0.394531 4.328125 -0.28125 L 4.328125 0 L 1.90625 0 L 1.90625 -0.28125 C 2.132812 -0.394531 2.394531 -0.46875 2.6875 -0.5 L 2.6875 -2.828125 L 0.765625 -6.140625 C 0.617188 -6.160156 0.484375 -6.191406 0.359375 -6.234375 C 0.242188 -6.273438 0.125 -6.320312 0 -6.375 L 0 -6.65625 L 2.515625 -6.65625 L 2.515625 -6.375 C 2.421875 -6.332031 2.3125 -6.289062 2.1875 -6.25 C 2.070312 -6.207031 1.9375 -6.171875 1.78125 -6.140625 L 3.34375 -3.34375 L 4.8125 -6.140625 C 4.664062 -6.171875 4.523438 -6.207031 4.390625 -6.25 C 4.265625 -6.289062 4.144531 -6.332031 4.03125 -6.375 Z M 4.03125 -6.65625 "/></g></g></g><g fill="#606987" fill-opacity="1"><g transform="translate(210.073936, 235.038472)"><g/></g></g><g fill="#606987" fill-opacity="1"><g transform="translate(212.884199, 235.038472)"><g><path d="M 2.109375 0 L 0 0 L 0 -0.28125 C 0.226562 -0.375 0.457031 -0.445312 0.6875 -0.5 L 3.09375 -6.765625 L 3.359375 -6.765625 L 5.765625 -0.5 C 5.890625 -0.476562 6.015625 -0.453125 6.140625 -0.421875 C 6.265625 -0.390625 6.378906 -0.34375 6.484375 -0.28125 L 6.484375 0 L 4.0625 0 L 4.0625 -0.28125 C 4.1875 -0.320312 4.3125 -0.363281 4.4375 -0.40625 C 4.570312 -0.445312 4.703125 -0.476562 4.828125 -0.5 L 4.1875 -2.234375 L 1.921875 -2.234375 L 1.296875 -0.5 C 1.554688 -0.46875 1.828125 -0.394531 2.109375 -0.28125 Z M 2.109375 -2.734375 L 4.03125 -2.734375 L 3.28125 -4.75 L 3.09375 -5.5625 L 3.078125 -5.5625 L 2.84375 -4.734375 Z M 2.109375 -2.734375 "/></g></g></g><g fill="#606987" fill-opacity="1"><g transform="translate(219.871018, 235.038472)"><g><path d="M 1.421875 -0.65625 C 1.492188 -0.582031 1.59375 -0.515625 1.71875 -0.453125 C 1.84375 -0.398438 2.023438 -0.375 2.265625 -0.375 C 2.460938 -0.375 2.648438 -0.398438 2.828125 -0.453125 C 3.003906 -0.515625 3.15625 -0.597656 3.28125 -0.703125 C 3.414062 -0.804688 3.519531 -0.929688 3.59375 -1.078125 C 3.675781 -1.222656 3.71875 -1.394531 3.71875 -1.59375 C 3.71875 -1.84375 3.640625 -2.050781 3.484375 -2.21875 C 3.328125 -2.394531 3.132812 -2.546875 2.90625 -2.671875 C 2.675781 -2.804688 2.421875 -2.9375 2.140625 -3.0625 C 1.867188 -3.195312 1.617188 -3.347656 1.390625 -3.515625 C 1.160156 -3.691406 0.96875 -3.898438 0.8125 -4.140625 C 0.65625 -4.390625 0.578125 -4.695312 0.578125 -5.0625 C 0.578125 -5.332031 0.625 -5.570312 0.71875 -5.78125 C 0.8125 -5.988281 0.945312 -6.164062 1.125 -6.3125 C 1.300781 -6.457031 1.507812 -6.566406 1.75 -6.640625 C 1.988281 -6.722656 2.257812 -6.765625 2.5625 -6.765625 C 2.945312 -6.765625 3.296875 -6.734375 3.609375 -6.671875 C 3.929688 -6.609375 4.1875 -6.535156 4.375 -6.453125 C 4.375 -6.335938 4.363281 -6.207031 4.34375 -6.0625 C 4.332031 -5.925781 4.3125 -5.78125 4.28125 -5.625 C 4.257812 -5.476562 4.238281 -5.332031 4.21875 -5.1875 C 4.195312 -5.050781 4.171875 -4.925781 4.140625 -4.8125 L 3.890625 -4.8125 L 3.515625 -6.125 C 3.398438 -6.164062 3.253906 -6.195312 3.078125 -6.21875 C 2.910156 -6.25 2.726562 -6.265625 2.53125 -6.265625 C 2.207031 -6.265625 1.945312 -6.175781 1.75 -6 C 1.550781 -5.820312 1.453125 -5.570312 1.453125 -5.25 C 1.453125 -4.988281 1.53125 -4.769531 1.6875 -4.59375 C 1.84375 -4.414062 2.035156 -4.253906 2.265625 -4.109375 C 2.503906 -3.972656 2.753906 -3.835938 3.015625 -3.703125 C 3.285156 -3.578125 3.535156 -3.425781 3.765625 -3.25 C 4.003906 -3.082031 4.203125 -2.878906 4.359375 -2.640625 C 4.515625 -2.410156 4.59375 -2.125 4.59375 -1.78125 C 4.59375 -1.488281 4.539062 -1.222656 4.4375 -0.984375 C 4.332031 -0.753906 4.179688 -0.554688 3.984375 -0.390625 C 3.796875 -0.234375 3.554688 -0.109375 3.265625 -0.015625 C 2.984375 0.0664062 2.660156 0.109375 2.296875 0.109375 C 1.898438 0.109375 1.539062 0.0625 1.21875 -0.03125 C 0.90625 -0.125 0.679688 -0.222656 0.546875 -0.328125 C 0.554688 -0.441406 0.566406 -0.570312 0.578125 -0.71875 C 0.597656 -0.875 0.617188 -1.03125 0.640625 -1.1875 C 0.660156 -1.351562 0.679688 -1.507812 0.703125 -1.65625 C 0.734375 -1.8125 0.757812 -1.941406 0.78125 -2.046875 L 1.03125 -2.046875 Z M 1.421875 -0.65625 "/></g></g></g><g fill="#606987" fill-opacity="1"><g transform="translate(225.462492, 235.038472)"><g><path d="M 4.78125 -6.65625 C 4.769531 -6.394531 4.753906 -6.132812 4.734375 -5.875 C 4.722656 -5.625 4.703125 -5.367188 4.671875 -5.109375 L 4.421875 -5.109375 L 4.03125 -6.15625 L 1.96875 -6.15625 L 1.96875 -3.640625 L 3.515625 -3.640625 L 3.890625 -4.34375 L 4.125 -4.34375 C 4.164062 -3.71875 4.164062 -3.078125 4.125 -2.421875 L 3.890625 -2.421875 L 3.515625 -3.140625 L 1.96875 -3.140625 L 1.96875 -0.5 L 4.15625 -0.5 L 4.609375 -1.640625 L 4.859375 -1.640625 C 4.898438 -1.367188 4.929688 -1.097656 4.953125 -0.828125 C 4.972656 -0.554688 4.972656 -0.28125 4.953125 0 L 0.28125 0 L 0.28125 -0.28125 C 0.5 -0.375 0.753906 -0.445312 1.046875 -0.5 L 1.046875 -6.140625 C 0.921875 -6.160156 0.789062 -6.191406 0.65625 -6.234375 C 0.53125 -6.273438 0.40625 -6.320312 0.28125 -6.375 L 0.28125 -6.65625 Z M 4.78125 -6.65625 "/></g></g></g><g fill="#606987" fill-opacity="1"><g transform="translate(231.490604, 235.038472)"><g><path d="M 1.421875 -0.65625 C 1.492188 -0.582031 1.59375 -0.515625 1.71875 -0.453125 C 1.84375 -0.398438 2.023438 -0.375 2.265625 -0.375 C 2.460938 -0.375 2.648438 -0.398438 2.828125 -0.453125 C 3.003906 -0.515625 3.15625 -0.597656 3.28125 -0.703125 C 3.414062 -0.804688 3.519531 -0.929688 3.59375 -1.078125 C 3.675781 -1.222656 3.71875 -1.394531 3.71875 -1.59375 C 3.71875 -1.84375 3.640625 -2.050781 3.484375 -2.21875 C 3.328125 -2.394531 3.132812 -2.546875 2.90625 -2.671875 C 2.675781 -2.804688 2.421875 -2.9375 2.140625 -3.0625 C 1.867188 -3.195312 1.617188 -3.347656 1.390625 -3.515625 C 1.160156 -3.691406 0.96875 -3.898438 0.8125 -4.140625 C 0.65625 -4.390625 0.578125 -4.695312 0.578125 -5.0625 C 0.578125 -5.332031 0.625 -5.570312 0.71875 -5.78125 C 0.8125 -5.988281 0.945312 -6.164062 1.125 -6.3125 C 1.300781 -6.457031 1.507812 -6.566406 1.75 -6.640625 C 1.988281 -6.722656 2.257812 -6.765625 2.5625 -6.765625 C 2.945312 -6.765625 3.296875 -6.734375 3.609375 -6.671875 C 3.929688 -6.609375 4.1875 -6.535156 4.375 -6.453125 C 4.375 -6.335938 4.363281 -6.207031 4.34375 -6.0625 C 4.332031 -5.925781 4.3125 -5.78125 4.28125 -5.625 C 4.257812 -5.476562 4.238281 -5.332031 4.21875 -5.1875 C 4.195312 -5.050781 4.171875 -4.925781 4.140625 -4.8125 L 3.890625 -4.8125 L 3.515625 -6.125 C 3.398438 -6.164062 3.253906 -6.195312 3.078125 -6.21875 C 2.910156 -6.25 2.726562 -6.265625 2.53125 -6.265625 C 2.207031 -6.265625 1.945312 -6.175781 1.75 -6 C 1.550781 -5.820312 1.453125 -5.570312 1.453125 -5.25 C 1.453125 -4.988281 1.53125 -4.769531 1.6875 -4.59375 C 1.84375 -4.414062 2.035156 -4.253906 2.265625 -4.109375 C 2.503906 -3.972656 2.753906 -3.835938 3.015625 -3.703125 C 3.285156 -3.578125 3.535156 -3.425781 3.765625 -3.25 C 4.003906 -3.082031 4.203125 -2.878906 4.359375 -2.640625 C 4.515625 -2.410156 4.59375 -2.125 4.59375 -1.78125 C 4.59375 -1.488281 4.539062 -1.222656 4.4375 -0.984375 C 4.332031 -0.753906 4.179688 -0.554688 3.984375 -0.390625 C 3.796875 -0.234375 3.554688 -0.109375 3.265625 -0.015625 C 2.984375 0.0664062 2.660156 0.109375 2.296875 0.109375 C 1.898438 0.109375 1.539062 0.0625 1.21875 -0.03125 C 0.90625 -0.125 0.679688 -0.222656 0.546875 -0.328125 C 0.554688 -0.441406 0.566406 -0.570312 0.578125 -0.71875 C 0.597656 -0.875 0.617188 -1.03125 0.640625 -1.1875 C 0.660156 -1.351562 0.679688 -1.507812 0.703125 -1.65625 C 0.734375 -1.8125 0.757812 -1.941406 0.78125 -2.046875 L 1.03125 -2.046875 Z M 1.421875 -0.65625 "/></g></g></g><g fill="#606987" fill-opacity="1"><g transform="translate(237.082079, 235.038472)"><g><path d="M 0.5 -3.328125 C 0.5 -3.816406 0.566406 -4.269531 0.703125 -4.6875 C 0.835938 -5.113281 1.035156 -5.476562 1.296875 -5.78125 C 1.554688 -6.09375 1.867188 -6.332031 2.234375 -6.5 C 2.609375 -6.675781 3.035156 -6.765625 3.515625 -6.765625 C 3.992188 -6.765625 4.414062 -6.675781 4.78125 -6.5 C 5.15625 -6.332031 5.472656 -6.09375 5.734375 -5.78125 C 5.992188 -5.476562 6.191406 -5.113281 6.328125 -4.6875 C 6.460938 -4.269531 6.53125 -3.816406 6.53125 -3.328125 C 6.53125 -2.828125 6.460938 -2.367188 6.328125 -1.953125 C 6.191406 -1.535156 5.992188 -1.171875 5.734375 -0.859375 C 5.472656 -0.554688 5.15625 -0.316406 4.78125 -0.140625 C 4.414062 0.0234375 3.992188 0.109375 3.515625 0.109375 C 3.035156 0.109375 2.609375 0.0234375 2.234375 -0.140625 C 1.867188 -0.316406 1.554688 -0.554688 1.296875 -0.859375 C 1.035156 -1.171875 0.835938 -1.535156 0.703125 -1.953125 C 0.566406 -2.367188 0.5 -2.828125 0.5 -3.328125 Z M 1.515625 -3.328125 C 1.515625 -2.921875 1.554688 -2.535156 1.640625 -2.171875 C 1.734375 -1.816406 1.863281 -1.503906 2.03125 -1.234375 C 2.207031 -0.972656 2.421875 -0.765625 2.671875 -0.609375 C 2.929688 -0.453125 3.238281 -0.375 3.59375 -0.375 C 3.914062 -0.375 4.195312 -0.453125 4.4375 -0.609375 C 4.6875 -0.765625 4.882812 -0.972656 5.03125 -1.234375 C 5.1875 -1.503906 5.304688 -1.816406 5.390625 -2.171875 C 5.472656 -2.535156 5.515625 -2.921875 5.515625 -3.328125 C 5.515625 -3.734375 5.472656 -4.113281 5.390625 -4.46875 C 5.304688 -4.820312 5.175781 -5.128906 5 -5.390625 C 4.832031 -5.660156 4.617188 -5.875 4.359375 -6.03125 C 4.097656 -6.1875 3.789062 -6.265625 3.4375 -6.265625 C 3.09375 -6.265625 2.796875 -6.1875 2.546875 -6.03125 C 2.304688 -5.875 2.109375 -5.660156 1.953125 -5.390625 C 1.804688 -5.128906 1.695312 -4.820312 1.625 -4.46875 C 1.550781 -4.113281 1.515625 -3.734375 1.515625 -3.328125 Z M 1.515625 -3.328125 "/></g></g></g><g fill="#606987" fill-opacity="1"><g transform="translate(244.60995, 235.038472)"><g><path d="M 1.96875 -0.5 C 2.113281 -0.46875 2.25 -0.429688 2.375 -0.390625 C 2.507812 -0.359375 2.644531 -0.320312 2.78125 -0.28125 L 2.78125 0 L 0.28125 0 L 0.28125 -0.28125 C 0.414062 -0.34375 0.546875 -0.390625 0.671875 -0.421875 C 0.796875 -0.453125 0.921875 -0.476562 1.046875 -0.5 L 1.046875 -6.140625 C 0.890625 -6.171875 0.742188 -6.207031 0.609375 -6.25 C 0.484375 -6.289062 0.375 -6.332031 0.28125 -6.375 L 0.28125 -6.65625 L 1.109375 -6.65625 C 1.359375 -6.65625 1.632812 -6.664062 1.9375 -6.6875 C 2.238281 -6.707031 2.535156 -6.71875 2.828125 -6.71875 C 3.128906 -6.71875 3.414062 -6.679688 3.6875 -6.609375 C 3.957031 -6.546875 4.191406 -6.4375 4.390625 -6.28125 C 4.585938 -6.132812 4.738281 -5.941406 4.84375 -5.703125 C 4.957031 -5.472656 5.015625 -5.191406 5.015625 -4.859375 C 5.015625 -4.398438 4.890625 -4.019531 4.640625 -3.71875 C 4.398438 -3.414062 4.070312 -3.195312 3.65625 -3.0625 C 3.925781 -2.625 4.207031 -2.191406 4.5 -1.765625 C 4.800781 -1.347656 5.113281 -0.929688 5.4375 -0.515625 L 5.953125 -0.234375 L 5.953125 0 L 4.8125 0 L 4.453125 -0.265625 C 4.273438 -0.484375 4.113281 -0.695312 3.96875 -0.90625 C 3.820312 -1.125 3.679688 -1.34375 3.546875 -1.5625 C 3.421875 -1.78125 3.300781 -2 3.1875 -2.21875 C 3.082031 -2.445312 2.972656 -2.6875 2.859375 -2.9375 L 1.96875 -2.9375 Z M 2.609375 -6.234375 C 2.460938 -6.234375 2.335938 -6.226562 2.234375 -6.21875 C 2.140625 -6.21875 2.050781 -6.207031 1.96875 -6.1875 L 1.96875 -3.34375 L 2.65625 -3.34375 C 3.09375 -3.34375 3.4375 -3.484375 3.6875 -3.765625 C 3.945312 -4.046875 4.078125 -4.410156 4.078125 -4.859375 C 4.078125 -5.328125 3.941406 -5.671875 3.671875 -5.890625 C 3.398438 -6.117188 3.046875 -6.234375 2.609375 -6.234375 Z M 2.609375 -6.234375 "/></g></g></g><g fill="#606987" fill-opacity="1"><g transform="translate(251.16013, 235.038472)"><g><path d="M 2.890625 0 L 0.453125 0 L 0.453125 -0.28125 C 0.703125 -0.394531 0.957031 -0.46875 1.21875 -0.5 L 1.21875 -6.140625 C 1.09375 -6.160156 0.960938 -6.191406 0.828125 -6.234375 C 0.703125 -6.273438 0.578125 -6.320312 0.453125 -6.375 L 0.453125 -6.65625 L 2.890625 -6.65625 L 2.890625 -6.375 C 2.773438 -6.320312 2.648438 -6.273438 2.515625 -6.234375 C 2.378906 -6.191406 2.25 -6.160156 2.125 -6.140625 L 2.125 -0.5 C 2.257812 -0.476562 2.390625 -0.445312 2.515625 -0.40625 C 2.648438 -0.363281 2.773438 -0.320312 2.890625 -0.28125 Z M 2.28125 -8.484375 C 2.34375 -8.492188 2.414062 -8.488281 2.5 -8.46875 C 2.59375 -8.457031 2.679688 -8.4375 2.765625 -8.40625 C 2.859375 -8.382812 2.945312 -8.351562 3.03125 -8.3125 C 3.113281 -8.269531 3.171875 -8.222656 3.203125 -8.171875 L 3.203125 -7.984375 L 1.0625 -7.125 L 0.890625 -7.3125 Z M 2.28125 -8.484375 "/></g></g></g><g fill="#606987" fill-opacity="1"><g transform="translate(255.005044, 235.038472)"><g><path d="M 2.109375 0 L 0 0 L 0 -0.28125 C 0.226562 -0.375 0.457031 -0.445312 0.6875 -0.5 L 3.09375 -6.765625 L 3.359375 -6.765625 L 5.765625 -0.5 C 5.890625 -0.476562 6.015625 -0.453125 6.140625 -0.421875 C 6.265625 -0.390625 6.378906 -0.34375 6.484375 -0.28125 L 6.484375 0 L 4.0625 0 L 4.0625 -0.28125 C 4.1875 -0.320312 4.3125 -0.363281 4.4375 -0.40625 C 4.570312 -0.445312 4.703125 -0.476562 4.828125 -0.5 L 4.1875 -2.234375 L 1.921875 -2.234375 L 1.296875 -0.5 C 1.554688 -0.46875 1.828125 -0.394531 2.109375 -0.28125 Z M 2.109375 -2.734375 L 4.03125 -2.734375 L 3.28125 -4.75 L 3.09375 -5.5625 L 3.078125 -5.5625 L 2.84375 -4.734375 Z M 2.109375 -2.734375 "/></g></g></g><g fill="#606987" fill-opacity="1"><g transform="translate(261.991862, 235.038472)"><g/></g></g><g fill="#606987" fill-opacity="1"><g transform="translate(264.802125, 235.038472)"><g><path d="M 1.875 -0.5 C 2.15625 -0.46875 2.425781 -0.394531 2.6875 -0.28125 L 2.6875 0 L 0.28125 0 L 0.28125 -0.28125 C 0.382812 -0.320312 0.492188 -0.363281 0.609375 -0.40625 C 0.722656 -0.445312 0.835938 -0.476562 0.953125 -0.5 L 0.953125 -6.140625 C 0.816406 -6.171875 0.691406 -6.207031 0.578125 -6.25 C 0.460938 -6.289062 0.363281 -6.332031 0.28125 -6.375 L 0.28125 -6.65625 L 4.734375 -6.65625 C 4.722656 -6.40625 4.707031 -6.148438 4.6875 -5.890625 C 4.675781 -5.628906 4.65625 -5.367188 4.625 -5.109375 L 4.375 -5.109375 L 3.984375 -6.15625 L 1.875 -6.15625 L 1.875 -3.453125 L 3.515625 -3.453125 L 3.90625 -4.15625 L 4.125 -4.15625 C 4.132812 -4.007812 4.140625 -3.851562 4.140625 -3.6875 C 4.148438 -3.53125 4.15625 -3.367188 4.15625 -3.203125 C 4.15625 -3.023438 4.148438 -2.851562 4.140625 -2.6875 C 4.140625 -2.53125 4.132812 -2.378906 4.125 -2.234375 L 3.90625 -2.234375 L 3.515625 -2.96875 L 1.875 -2.96875 Z M 1.875 -0.5 "/></g></g></g><g fill="#606987" fill-opacity="1"><g transform="translate(270.469531, 235.038472)"><g><path d="M 2.890625 0 L 0.453125 0 L 0.453125 -0.28125 C 0.703125 -0.394531 0.957031 -0.46875 1.21875 -0.5 L 1.21875 -6.140625 C 1.09375 -6.160156 0.960938 -6.191406 0.828125 -6.234375 C 0.703125 -6.273438 0.578125 -6.320312 0.453125 -6.375 L 0.453125 -6.65625 L 2.890625 -6.65625 L 2.890625 -6.375 C 2.773438 -6.320312 2.648438 -6.273438 2.515625 -6.234375 C 2.378906 -6.191406 2.25 -6.160156 2.125 -6.140625 L 2.125 -0.5 C 2.257812 -0.476562 2.390625 -0.445312 2.515625 -0.40625 C 2.648438 -0.363281 2.773438 -0.320312 2.890625 -0.28125 Z M 2.890625 0 "/></g></g></g><g fill="#606987" fill-opacity="1"><g transform="translate(274.314442, 235.038472)"><g><path d="M 1.421875 -0.65625 C 1.492188 -0.582031 1.59375 -0.515625 1.71875 -0.453125 C 1.84375 -0.398438 2.023438 -0.375 2.265625 -0.375 C 2.460938 -0.375 2.648438 -0.398438 2.828125 -0.453125 C 3.003906 -0.515625 3.15625 -0.597656 3.28125 -0.703125 C 3.414062 -0.804688 3.519531 -0.929688 3.59375 -1.078125 C 3.675781 -1.222656 3.71875 -1.394531 3.71875 -1.59375 C 3.71875 -1.84375 3.640625 -2.050781 3.484375 -2.21875 C 3.328125 -2.394531 3.132812 -2.546875 2.90625 -2.671875 C 2.675781 -2.804688 2.421875 -2.9375 2.140625 -3.0625 C 1.867188 -3.195312 1.617188 -3.347656 1.390625 -3.515625 C 1.160156 -3.691406 0.96875 -3.898438 0.8125 -4.140625 C 0.65625 -4.390625 0.578125 -4.695312 0.578125 -5.0625 C 0.578125 -5.332031 0.625 -5.570312 0.71875 -5.78125 C 0.8125 -5.988281 0.945312 -6.164062 1.125 -6.3125 C 1.300781 -6.457031 1.507812 -6.566406 1.75 -6.640625 C 1.988281 -6.722656 2.257812 -6.765625 2.5625 -6.765625 C 2.945312 -6.765625 3.296875 -6.734375 3.609375 -6.671875 C 3.929688 -6.609375 4.1875 -6.535156 4.375 -6.453125 C 4.375 -6.335938 4.363281 -6.207031 4.34375 -6.0625 C 4.332031 -5.925781 4.3125 -5.78125 4.28125 -5.625 C 4.257812 -5.476562 4.238281 -5.332031 4.21875 -5.1875 C 4.195312 -5.050781 4.171875 -4.925781 4.140625 -4.8125 L 3.890625 -4.8125 L 3.515625 -6.125 C 3.398438 -6.164062 3.253906 -6.195312 3.078125 -6.21875 C 2.910156 -6.25 2.726562 -6.265625 2.53125 -6.265625 C 2.207031 -6.265625 1.945312 -6.175781 1.75 -6 C 1.550781 -5.820312 1.453125 -5.570312 1.453125 -5.25 C 1.453125 -4.988281 1.53125 -4.769531 1.6875 -4.59375 C 1.84375 -4.414062 2.035156 -4.253906 2.265625 -4.109375 C 2.503906 -3.972656 2.753906 -3.835938 3.015625 -3.703125 C 3.285156 -3.578125 3.535156 -3.425781 3.765625 -3.25 C 4.003906 -3.082031 4.203125 -2.878906 4.359375 -2.640625 C 4.515625 -2.410156 4.59375 -2.125 4.59375 -1.78125 C 4.59375 -1.488281 4.539062 -1.222656 4.4375 -0.984375 C 4.332031 -0.753906 4.179688 -0.554688 3.984375 -0.390625 C 3.796875 -0.234375 3.554688 -0.109375 3.265625 -0.015625 C 2.984375 0.0664062 2.660156 0.109375 2.296875 0.109375 C 1.898438 0.109375 1.539062 0.0625 1.21875 -0.03125 C 0.90625 -0.125 0.679688 -0.222656 0.546875 -0.328125 C 0.554688 -0.441406 0.566406 -0.570312 0.578125 -0.71875 C 0.597656 -0.875 0.617188 -1.03125 0.640625 -1.1875 C 0.660156 -1.351562 0.679688 -1.507812 0.703125 -1.65625 C 0.734375 -1.8125 0.757812 -1.941406 0.78125 -2.046875 L 1.03125 -2.046875 Z M 1.421875 -0.65625 "/></g></g></g><g fill="#606987" fill-opacity="1"><g transform="translate(279.905916, 235.038472)"><g><path d="M 5.203125 -1.734375 L 5.4375 -1.734375 C 5.46875 -1.554688 5.492188 -1.332031 5.515625 -1.0625 C 5.546875 -0.789062 5.554688 -0.53125 5.546875 -0.28125 C 5.453125 -0.195312 5.335938 -0.128906 5.203125 -0.078125 C 5.066406 -0.0351562 4.925781 0 4.78125 0.03125 C 4.632812 0.0625 4.484375 0.0820312 4.328125 0.09375 C 4.171875 0.101562 4.023438 0.109375 3.890625 0.109375 C 3.359375 0.109375 2.878906 0.0390625 2.453125 -0.09375 C 2.035156 -0.226562 1.679688 -0.429688 1.390625 -0.703125 C 1.109375 -0.984375 0.890625 -1.34375 0.734375 -1.78125 C 0.578125 -2.21875 0.5 -2.734375 0.5 -3.328125 C 0.5 -3.941406 0.582031 -4.46875 0.75 -4.90625 C 0.925781 -5.34375 1.160156 -5.695312 1.453125 -5.96875 C 1.742188 -6.25 2.082031 -6.453125 2.46875 -6.578125 C 2.851562 -6.703125 3.257812 -6.765625 3.6875 -6.765625 C 4.101562 -6.765625 4.453125 -6.738281 4.734375 -6.6875 C 5.023438 -6.632812 5.273438 -6.550781 5.484375 -6.4375 C 5.484375 -6.332031 5.476562 -6.210938 5.46875 -6.078125 C 5.46875 -5.941406 5.460938 -5.796875 5.453125 -5.640625 C 5.441406 -5.492188 5.425781 -5.347656 5.40625 -5.203125 C 5.382812 -5.054688 5.363281 -4.925781 5.34375 -4.8125 L 5.09375 -4.8125 L 4.609375 -6.171875 C 4.535156 -6.210938 4.414062 -6.238281 4.25 -6.25 C 4.09375 -6.257812 3.9375 -6.265625 3.78125 -6.265625 C 3.46875 -6.265625 3.164062 -6.207031 2.875 -6.09375 C 2.59375 -5.976562 2.347656 -5.796875 2.140625 -5.546875 C 1.929688 -5.304688 1.757812 -5 1.625 -4.625 C 1.5 -4.257812 1.4375 -3.828125 1.4375 -3.328125 C 1.4375 -2.878906 1.492188 -2.472656 1.609375 -2.109375 C 1.722656 -1.742188 1.890625 -1.429688 2.109375 -1.171875 C 2.328125 -0.910156 2.585938 -0.710938 2.890625 -0.578125 C 3.203125 -0.441406 3.554688 -0.375 3.953125 -0.375 C 4.160156 -0.375 4.332031 -0.390625 4.46875 -0.421875 C 4.613281 -0.453125 4.707031 -0.492188 4.75 -0.546875 Z M 5.203125 -1.734375 "/></g></g></g><g fill="#606987" fill-opacity="1"><g transform="translate(286.52254, 235.038472)"><g><path d="M 2.109375 0 L 0 0 L 0 -0.28125 C 0.226562 -0.375 0.457031 -0.445312 0.6875 -0.5 L 3.09375 -6.765625 L 3.359375 -6.765625 L 5.765625 -0.5 C 5.890625 -0.476562 6.015625 -0.453125 6.140625 -0.421875 C 6.265625 -0.390625 6.378906 -0.34375 6.484375 -0.28125 L 6.484375 0 L 4.0625 0 L 4.0625 -0.28125 C 4.1875 -0.320312 4.3125 -0.363281 4.4375 -0.40625 C 4.570312 -0.445312 4.703125 -0.476562 4.828125 -0.5 L 4.1875 -2.234375 L 1.921875 -2.234375 L 1.296875 -0.5 C 1.554688 -0.46875 1.828125 -0.394531 2.109375 -0.28125 Z M 2.109375 -2.734375 L 4.03125 -2.734375 L 3.28125 -4.75 L 3.09375 -5.5625 L 3.078125 -5.5625 L 2.84375 -4.734375 Z M 2.109375 -2.734375 "/></g></g></g><g fill="#606987" fill-opacity="1"><g transform="translate(293.509358, 235.038472)"><g><path d="M 0.28125 -6.65625 L 2.875 -6.65625 L 2.875 -6.375 C 2.726562 -6.3125 2.578125 -6.257812 2.421875 -6.21875 C 2.265625 -6.1875 2.113281 -6.160156 1.96875 -6.140625 L 1.96875 -0.5 L 4.15625 -0.5 L 4.71875 -2.03125 L 4.953125 -2.03125 C 4.972656 -1.894531 4.988281 -1.738281 5 -1.5625 C 5.019531 -1.382812 5.035156 -1.203125 5.046875 -1.015625 C 5.054688 -0.828125 5.0625 -0.644531 5.0625 -0.46875 C 5.0625 -0.289062 5.054688 -0.132812 5.046875 0 L 0.28125 0 L 0.28125 -0.28125 C 0.425781 -0.34375 0.5625 -0.390625 0.6875 -0.421875 C 0.820312 -0.453125 0.941406 -0.476562 1.046875 -0.5 L 1.046875 -6.140625 C 0.910156 -6.160156 0.773438 -6.191406 0.640625 -6.234375 C 0.503906 -6.273438 0.382812 -6.320312 0.28125 -6.375 Z M 0.28125 -6.65625 "/></g></g></g></svg>