<svg xmlns="http://www.w3.org/2000/svg" xmlns:xlink="http://www.w3.org/1999/xlink" width="500" zoomAndPan="magnify" viewBox="0 0 375 374.999991" height="500" preserveAspectRatio="xMidYMid meet" version="1.0"><defs><g/><clipPath id="f11b163e0f"><path d="M 134.359375 76.738281 L 252.859375 76.738281 L 252.859375 197.488281 L 134.359375 197.488281 Z M 134.359375 76.738281 " clip-rule="nonzero"/></clipPath></defs><g clip-path="url(#f11b163e0f)"><path fill="#70a300" d="M 200.835938 76.828125 C 225.03125 83.265625 242.863281 105.316406 242.863281 131.539062 C 242.863281 162.808594 217.511719 188.160156 186.242188 188.160156 C 163.039062 188.160156 143.105469 174.195312 134.359375 154.21875 C 141.867188 179.105469 164.957031 197.234375 192.292969 197.234375 C 225.710938 197.234375 252.804688 170.144531 252.804688 136.726562 C 252.804688 106.207031 230.207031 80.980469 200.835938 76.828125 " fill-opacity="1" fill-rule="nonzero"/></g><path fill="#71cf48" d="M 197.167969 111.714844 L 197.167969 120.269531 L 204.371094 120.269531 L 204.371094 165.125 C 211.007812 161.320312 216.578125 155.859375 220.507812 149.300781 L 220.507812 106.726562 L 197.167969 111.714844 " fill-opacity="1" fill-rule="nonzero"/><path fill="#71cf48" d="M 206.898438 85.339844 C 220.894531 93.710938 230.265625 109.015625 230.265625 126.507812 C 230.265625 146.394531 218.160156 163.453125 200.914062 170.71875 L 200.914062 123.726562 L 177.574219 128.714844 L 177.574219 141.878906 L 184.777344 141.878906 L 184.777344 174.398438 C 183.960938 174.441406 183.140625 174.460938 182.3125 174.460938 C 181.980469 174.460938 181.652344 174.449219 181.320312 174.441406 L 181.320312 145.339844 L 157.980469 150.324219 L 157.980469 167.835938 C 149.832031 163.023438 143.226562 155.878906 139.097656 147.3125 C 145.746094 167.296875 164.585938 181.710938 186.804688 181.710938 C 214.574219 181.710938 237.085938 159.199219 237.085938 131.429688 C 237.085938 110.808594 224.664062 93.09375 206.898438 85.339844 " fill-opacity="1" fill-rule="nonzero"/><g fill="#6d6d6d" fill-opacity="1"><g transform="translate(138.234577, 257.370218)"><g><path d="M 10.789062 0 C 10.292969 -2.085938 9.972656 -8.929688 10.199219 -16.457031 L 25.34375 -16.457031 C 26.792969 -11.46875 28.335938 -6.257812 30.238281 0 L 37.175781 0 C 32.507812 -15.460938 29.695312 -24.617188 25.117188 -39.714844 C 24.164062 -42.84375 22.351562 -45.789062 19.042969 -45.789062 C 15.730469 -45.789062 13.917969 -42.84375 12.964844 -39.714844 C 8.386719 -24.617188 5.621094 -15.460938 0.90625 0 Z M 10.246094 -17.136719 C 10.65625 -28.609375 12.285156 -41.394531 16.367188 -41.394531 C 17.363281 -41.394531 17.863281 -40.714844 18.179688 -39.714844 C 20.945312 -31.011719 22.984375 -24.253906 25.117188 -17.136719 Z M 10.246094 -17.136719 "/></g></g></g><g fill="#6d6d6d" fill-opacity="1"><g transform="translate(176.310166, 257.370218)"><g><path d="M 9.746094 0 L 9.746094 -44.65625 L 19.449219 -44.65625 C 24.800781 -44.65625 26.929688 -41.394531 26.929688 -37.132812 C 26.929688 -25.253906 13.238281 -24.707031 13.238281 -20.3125 C 13.238281 -17.410156 19.042969 -8.433594 22.851562 -3.445312 C 25.207031 -0.363281 25.34375 0 28.019531 0 L 35.5 0 L 35.5 -0.273438 C 32.234375 -0.273438 18.496094 -20.265625 18.496094 -23.394531 C 18.496094 -26.160156 33.503906 -26.613281 33.503906 -37.539062 C 33.503906 -41.257812 31.101562 -45.335938 26.160156 -45.335938 L 3.171875 -45.335938 L 3.171875 0 Z M 9.746094 0 "/></g></g></g><g fill="#6d6d6d" fill-opacity="1"><g transform="translate(211.802046, 257.370218)"><g><path d="M 21.21875 0.453125 C 28.335938 0.453125 31.101562 -0.863281 33.957031 -3.398438 L 33.957031 -24.347656 L 27.292969 -24.347656 L 27.292969 -1.8125 C 27.292969 -0.90625 25.570312 -0.40625 24.4375 -0.40625 C 16.773438 -0.40625 7.207031 -15.824219 7.207031 -29.015625 C 7.207031 -37.722656 8.976562 -42.980469 15.1875 -42.980469 C 20.3125 -42.980469 25.480469 -40.125 29.0625 -35.90625 L 33.503906 -41.210938 C 31.828125 -43.796875 26.976562 -45.789062 22.304688 -45.789062 C 9.429688 -45.789062 1.8125 -36.40625 1.8125 -23.394531 C 1.8125 -10.835938 8.25 0.453125 21.21875 0.453125 Z M 21.21875 0.453125 "/></g></g></g></svg>